<?xml version="1.0" standalone="no"?><!DOCTYPE svg PUBLIC "-//W3C//DTD SVG 1.1//EN" "http://www.w3.org/Graphics/SVG/1.1/DTD/svg11.dtd"><svg t="1631862450311" class="icon" viewBox="0 0 1366 1024" version="1.1" xmlns="http://www.w3.org/2000/svg" p-id="2174" width="170.75" height="128" xmlns:xlink="http://www.w3.org/1999/xlink"><defs><style type="text/css"></style></defs><path d="M1069.5675 592.219s-42.005 11.485-22.725 57.925c0 0-32.55 22.195-27.55 59.22l6.33 34.04 109.45-2.81s36.42-60.125-21.715-88.745c0 0 23.4-32.995 11.335-48.81 0 0-29.115-19.06-55.125-10.82z" fill="#FFFFFF" p-id="2175"></path><path d="M1126.6765 617.3075c0.71-10.58-5.44-16.09-13.76-18.815-5.87-1.92-14.48-2.49-20.995-2.44a1.498 1.498 0 0 1-1.51-1.49 1.494 1.494 0 0 1 1.485-1.51c6.815-0.05 15.81 0.58 21.95 2.59 9.66 3.16 16.685 9.64 15.815 21.955l-0.015 0.135s-2.13 13.25-15.15 34.375c5.44 2.125 21.725 9.74 29.675 27.225 6.355 13.985 7.445 34.355-6.98 63.365a1.506 1.506 0 0 1-1.345 0.835h-111.585c-0.645 0-1.22-0.415-1.425-1.035 0 0-8.045-24.56-4.585-49.165 2.295-16.285 9.595-32.56 27.345-41.975l-3.745-11.095c-0.005-0.02-0.015-0.04-0.02-0.06 0 0-10.835-36.945 25.645-46.475 0.805-0.21 1.625 0.27 1.835 1.075 0.205 0.8-0.275 1.62-1.075 1.83-33.015 8.625-23.815 41.705-23.53 42.705l4.145 12.28c0.24 0.71-0.08 1.485-0.75 1.82-17.585 8.81-24.665 24.585-26.875 40.31-2.955 21 2.71 41.96 4.145 46.785h109.545c13.415-27.405 12.565-46.67 6.52-59.96-9.06-19.935-29.635-26.25-29.635-26.25a1.495 1.495 0 0 1-0.965-0.91 1.495 1.495 0 0 1 0.135-1.325c12.955-20.55 15.525-33.785 15.705-34.78z" fill="#FBC12A" p-id="2176"></path><path d="MNaN NaNaNaN NaN NaN 1 0 NaN NaN NaN NaN NaN 1 0 NaN NaNZ" fill="#194FB0" p-id="2177"></path><path d="M1086.8175 608.215c-3.18 1.245-9.03-10.385-10.525-12.83-9.445-15.395-19.07-31.425-19.62-50.025-0.715-24.205 19.12-35.38 23.63-56.658 4.33-20.459-14.07-38.2935-11.2-61.164 2.585-20.5965 23.375-30.2515 26.05-50.925 1.925-14.903 2.885-29.7575 13.475-41.577 2.13-2.3795 7.84-8.428 11.63-8.428 1.35 0 7.58 12.438 8.12 13.62 7.045 15.472 9.75 31.819 5.31 48.455-3.755 14.0735-12.28 27.177-12.46 42.071-0.19 16.126 8.525 30.575 5.745 47.05-2.855 16.898-19.04 25.8175-23.715 41.626-4.2 14.205 3.905 29.88 3.225 44.465-0.515 11.175-4.6 21.74-8.495 32.1-5.365 14.27-4.855 21.74-20.64 15.665" fill="#B1C3E7" fill-opacity=".75" p-id="2178"></path><path d="M1059.3415 529.5175l7.2-13.6s18.345 13.06 17.52 30.935c0 0 19.95-65.741 42.41-66.657l-32.43 130.577-13.495 2-21.205-83.255z" fill="#8DA7DA" p-id="2179"></path><path d="M1118.8615 326.8235s-0.34 25.1115-0.1 35.92c0.17 7.649-2.785 14.67-4.71 22.1045-2.155 8.308-6.485 15.7135-10.26 23.291-3.925 7.876-7.255 15.933-7.255 25.254 0 7.9395 2.215 15.5225 4.275 23.131 1.975 7.3125 3.815 14.6495 3.145 22.393-0.795 9.231-5.095 17.0965-9.6 24.899-4.695 8.1315-9.62 16.2015-11.47 25.5015-2.485 12.49 1.46 25.375 1.9 37.915 0.47 13.39-2.16 26.225-5.07 39.195-0.18 0.81 0.33 1.61 1.135 1.795a1.505 1.505 0 0 0 1.795-1.135c2.965-13.225 5.615-26.315 5.14-39.96-0.435-12.315-4.4-24.96-1.96-37.225 1.79-8.975 6.595-16.735 11.13-24.5865 4.725-8.1825 9.155-16.4605 9.99-26.141 0.7-8.101-1.17-15.785-3.24-23.435-1.99-7.353-4.17-14.674-4.17-22.347 0-8.834 3.22-16.4515 6.94-23.9165 3.87-7.763 8.27-15.365 10.48-23.8755 1.995-7.705 4.98-14.997 4.805-22.924-0.22-9.737 0.155-34.24 0.155-34.24-0.47-0.664-0.87-1.2365-1.25-1.6505a0.8245 0.8245 0 0 0-0.73-0.231c-0.22 0.0375-0.45 0.0785-0.45 0.0785l-0.625 0.1895z" fill="#194FB0" p-id="2180"></path><path d="M1102.9765 612.7725h-19.965c-0.965-0.095-0.945-14.58-1.065-15.415-1.69-12.125-2.61-26.565 5.035-36.97 3.58-4.875 8.75-8.69 11.005-14.45 4.885-12.5 3.015-26.555 8.46-39.172 4.77-11.053 14.975-16.295 21.465-25.8675 7.905-11.657 10.89-26.468 17.585-38.867 8.3-15.3605 30.575-41.5605 50.505-41.487 2.03 0.0075-0.31 11.975-0.335 13.7635-0.2 14.45 2.07 28.965-4.125 42.615-7.46 16.431-24.085 26.452-31.79 42.686-7.205 15.174-3.28 35.679-13.695 49.124-8.38 10.825-23.6 12.685-32.68 22.79-11.275 12.55-8.625 32.115-10.4 41.25z" fill="#B1C3E7" p-id="2181"></path><path d="M1193.9565 400.6415c1-0.1205 2.155-0.151 2.32-0.013 0.41 0.3365 0.44 0.98 0.54 1.5515 0 0-0.125 0.087-0.19 0.135-3.16 2.317-12.47 12.208-16.96 21.274-3.76 7.5885-5.75 15.725-8.04 23.7135-2.355 8.233-5.025 16.3095-10.065 23.534-8.185 11.7185-20.095 20.247-26.895 33.029-3.2 6.007-4.99 12.567-6.94 19.052-2.02 6.72-4.205 13.365-8.135 19.31-10.585 16.025-28.7 23.195-28.03 70.525 0.01 0.83-0.65 1.51-1.48 1.52-0.825 0.015-1.51-0.65-1.52-1.475-0.685-48.43 17.695-55.83 28.53-72.225 3.76-5.695 5.83-12.08 7.765-18.52 2.005-6.675 3.87-13.4155 7.16-19.597 6.86-12.889 18.83-21.52 27.085-33.3365 4.845-6.946 7.375-14.7265 9.645-22.6425 2.335-8.161 4.39-16.4665 8.23-24.219 4.26-8.5985 12.665-17.882 16.72-21.415 0.11-0.096 0.125-0.185 0.26-0.201z" fill="#194FB0" p-id="2182"></path><path d="M1094.1215 612.7725h5.37s0.245-32.705-18.31-36.695l-0.4 5.325s13.07 12.36 13.34 31.37z" fill="#194FB0" fill-opacity=".24" p-id="2183"></path><path d="M1073.802 617.0065c-3.911-3.222-8.6925-8.27-10.815-12.8125-4.2275-9.0485-2.5285-20.5135-9.1585-28.345-8.5825-10.153-23.4715-12.185-30.9005-23.95-7.852-12.439 1.1405-23.488-9.224-37.644-9.1925-12.547-15.4925-24.877-11.978-40.781 0.6535-2.948 2.0415-10.843 5.052-12.703 0.5765-0.355 8.135 4.5415 8.74 4.88 9.8635 5.48 19.1575 12.4495 25.0115 22.2975 5.9325 9.974 4.138 21.1815 8.585 31.4 4.1465 9.538 16.2435 10.986 21.2135 20.1555 5.5165 10.1765 1.114 20.183 3.474 30.59 1.715 7.547 9.459 12.753 13.294 19.2425 3.6495 6.17 5.8015 13.393 6.614 20.4975 0.1075 0.9245 0.913 5.793-0.0815 6.5265" fill="#B1C3E7" p-id="2184"></path><path d="M1007.0215 460.745c-0.465-0.0155-1.1 0.711-1.77 1.5915 0 0 0.135 0.2485 0.235 0.369 12.485 14.7795 15.615 25.5265 21.095 37.729 2.705 6.0235 4 12.483 5.345 18.968 1.385 6.7 2.82 13.425 5.76 19.765 2.85 6.14 7.81 8.82 12.665 11.985 4.355 2.835 8.585 6.135 10.545 13.575 4.665 17.72 8.495 22.54 11.12 32.645 1.855 7.145 5.15 9.71 8.19 12.36 2.635 2.29 5.025 4.675 5.69 11.195a1.502 1.502 0 0 0 1.645 1.34 1.4995 1.4995 0 0 0 1.34-1.645c-0.785-7.665-3.61-10.455-6.705-13.15-2.68-2.335-5.62-4.565-7.255-10.855-2.625-10.11-6.46-14.93-11.125-32.65-2.205-8.38-6.91-12.135-11.805-15.33-4.4-2.865-9.005-5.175-11.585-10.735-2.84-6.125-4.205-12.63-5.545-19.11-1.385-6.6975-2.745-13.3645-5.54-19.587-5.51-12.264-8.725-23.0665-21.005-37.801-0.305-0.362-1.295-0.6595-1.295-0.6595z" fill="#194FB0" p-id="2185"></path><path d="M1048.313 742.544c0.605-2.405 1.695-4.335 3.035-5.89 2.67-3.1 6.52-4.775 10.235-5.565 2.395-0.51 4.705-0.655 6.485-0.66 1.66-7.785 5.06-12.465 8.92-15.255 4.205-3.045 9.09-3.905 13.455-3.76 6.195 0.2 11.25 2.41 11.25 2.41a3.502 3.502 0 0 1 1.815 4.605c-0.765 1.77-2.83 2.585-4.6 1.815 0 0-3.91-1.68-8.695-1.835-2.95-0.095-6.28 0.38-9.12 2.435-3.2 2.315-5.65 6.56-6.645 13.685-0.26 1.89-1.985 3.215-3.875 2.995 0 0-3.625-0.42-7.535 0.415-2.29 0.485-4.74 1.375-6.385 3.285-0.335 0.39-0.63 0.815-0.88 1.29l-7.46 0.03z m90.445-4.71c-3.175-2.585-7.13-3.6-10.75-3.95-6.085-0.585-11.355 0.745-11.355 0.745-1.87 0.48-3.775-0.65-4.255-2.525-0.48-1.87 0.65-3.775 2.525-4.255 0 0 6.38-1.645 13.755-0.935 4.34 0.42 8.99 1.66 12.985 4.365-1.01 2.59-2.02 4.805-2.905 6.555z m-119.465-41.175c4.64-2.76 10.52-4.925 17.13-4.345 6.85 0.6 14.585 4.06 22.475 13.125 1.265 1.455 1.11 3.67-0.345 4.935a3.504 3.504 0 0 1-4.94-0.34c-6.3-7.245-12.33-10.27-17.805-10.75-7.32-0.64-13.455 3.095-17.33 6.355 0.125-3.24 0.425-6.25 0.815-8.98z m117.7-26.41c1.495 1.895 2.805 3.84 3.94 5.825-0.29 0.245-0.585 0.51-0.87 0.805-3.675 3.76-6.54 11.215-4.82 25.705 0.23 1.915-1.145 3.66-3.06 3.885-1.92 0.23-3.66-1.145-3.89-3.06-2.115-17.81 2.25-26.8 6.76-31.42a19.69 19.69 0 0 1 1.94-1.74z m-90.64 5.29a3.488 3.488 0 0 1-1.01 2.135c-1.37 1.365-3.59 1.36-4.95-0.01-0.745-0.75-1.185-1.715-1.145-2.935 0.03-1.07 0.915-3.22 3.235-5.255 4.49-3.93 14.615-8.895 24.04-5.535 5.42 1.93 10.815 6.58 14.58 16.145 1.735-0.805 3.91-1.63 6.215-2.07 4.185-0.8 8.715-0.335 12.31 2.9 2.105 1.895 3.95 4.815 5.04 9.275a3.5065 3.5065 0 0 1-2.57 4.23c-1.88 0.455-3.775-0.695-4.23-2.575-0.665-2.715-1.635-4.57-2.92-5.725-1.83-1.645-4.19-1.64-6.32-1.23-4.03 0.77-7.51 3.14-7.51 3.14a3.5095 3.5095 0 0 1-3.135 0.405 3.5165 3.5165 0 0 1-2.185-2.285c-2.5-8.24-6.035-12.83-10.065-14.935-5.735-2.995-12.085-0.76-16.135 1.715-1.32 0.81-2.65 2.035-3.245 2.61z m80.345-50.655c-3.46-0.35-7.99-0.085-11.885 2.51-3.215 2.14-5.885 5.93-7.28 12.17a3.5005 3.5005 0 0 1-3.5 2.735s-5.645-0.265-8.27 3.755c-1.18 1.805-1.625 4.43-0.96 8.19 0.335 1.9-0.935 3.72-2.84 4.055-1.9 0.335-3.72-0.935-4.055-2.84-1.075-6.1 0.08-10.305 1.995-13.235 3.005-4.605 8.205-6.145 11.435-6.665 2.07-7.045 5.64-11.355 9.59-13.99 5.485-3.655 11.89-3.99 16.65-3.515-0.085 2.25-0.4 4.545-0.88 6.83z m-83.045-3.205c0.02 0.005 7.725 2.63 11.665 7.565 3.025 3.79 5.29 9.415 3.845 17.475-0.345 1.9 0.92 3.72 2.825 4.065 1.9 0.34 3.72-0.925 4.06-2.825 4.445-24.695-19.81-33.41-19.81-33.41-1.83-0.625-2.3 1.43-2.92 3.255-0.625 1.83-1.495 3.25 0.335 3.875z" fill="#FBC12A" p-id="2186"></path><path d="M711.479 537.045h339.3075v213.515h-339.3075z" fill="#EE7E5C" p-id="2187"></path><path d="M729.9965 552.671h302.265v58.101h-302.265zM731.4965 731.0185h160.19c0.83 0 1.5 0.675 1.5 1.503a1.502 1.502 0 0 1-1.5 1.503h-161.69c-0.825 0-1.5-0.675-1.5-1.503v-104.585a1.505 1.505 0 0 1 1.5-1.5025h154.82c0.83 0 1.5 0.675 1.5 1.503a1.494 1.494 0 0 1-1.5 1.494h-153.32v101.5875z" fill="#184EB0" p-id="2188"></path><path d="M1030.7615 629.431h-145.945c-0.825 0-1.5-0.666-1.5-1.494a1.505 1.505 0 0 1 1.5-1.503h147.445c0.83 0 1.5 0.675 1.5 1.503v104.585a1.502 1.502 0 0 1-1.5 1.5025h-140.575c-0.825 0-1.5-0.675-1.5-1.503a1.505 1.505 0 0 1 1.5-1.503h139.075v-101.5875zM879.6315 627.9325v104.585c0 0.83 0.67 1.5 1.5 1.5s1.5-0.67 1.5-1.5v-104.585c0-0.825-0.67-1.5-1.5-1.5s-1.5 0.675-1.5 1.5z" fill="#184EB0" p-id="2189"></path><path d="M896.639843 680.227346m-4.945453 0a4.945452 4.945452 0 1 0 9.890905 0 4.945452 4.945452 0 1 0-9.890905 0Z" fill="#184EB0" p-id="2190"></path><path d="M865.634843 680.227346m-4.945453 0a4.945452 4.945452 0 1 0 9.890905 0 4.945452 4.945452 0 1 0-9.890905 0Z" fill="#184EB0" p-id="2191"></path><path d="M875.113 505.869h-209.54c-6.93 0-12.555-5.625-12.555-12.555V259.055c0-6.929 5.625-12.555 12.555-12.555h430.68c6.93 0 12.555 5.626 12.555 12.555v234.259c0 6.93-5.625 12.555-12.555 12.555h-195.41v16.33h42.94c2.425 0 4.75 0.96 6.465 2.675 1.715 1.715 2.675 4.04 2.675 6.465v5.705h-129.89v-5.705c0-2.425 0.96-4.75 2.675-6.465 1.715-1.715 4.04-2.675 6.465-2.675h42.94v-16.33z" fill="#184EB0" p-id="2192"></path><path d="M1096.2465 269.91c0-5.991-4.8645-10.855-10.8545-10.855H676.425c-5.99 0-10.854 4.864-10.854 10.855v202.563c0 5.991 4.864 10.855 10.854 10.855h408.9675c5.99 0 10.8545-4.864 10.8545-10.855V269.91z" fill="#FFFFFF" p-id="2193"></path><path d="M997.304 340.8405l9.138-12.7215a1.004 1.004 0 0 1 1.028-0.393c0.3905 0.085 0.693 0.3945 0.7685 0.7865l3.151 16.255 13.275-8.605a1.0025 1.0025 0 0 1 1.164 0.054c0.338 0.265 0.4665 0.714 0.3255 1.1175l-5.425 15.407a1 1 0 0 1-1.8875-0.6645l4.4525-12.64-12.06 7.815a0.996 0.996 0 0 1-0.935 0.082 1.009 1.009 0 0 1-0.59-0.73l-2.9925-15.435-8.554 11.9025c-0.181 0.2535-0.47 0.407-0.7835 0.4155a0.998 0.998 0 0 1-0.805-0.3695l-9.041-11.155-0.003 13.58c0.001 0.5525-0.445 1.0005-0.997 1.0005a1.0005 1.0005 0 0 1-1.0015-1v-16.402a1.001 1.001 0 0 1 1.778-0.6295l9.9945 12.3295z" fill="#F3390E" p-id="2194"></path><path d="M770.0555 384.6315l5.3785-16.2145a0.999 0.999 0 0 1 1.9185 0.07l3.663 14.5205 7.4075-8.13a0.9995 0.9995 0 0 1 1.7365 0.68l-0.085 13.1135a1.002 1.002 0 0 1-1.0065 0.9935 0.998 0.998 0 0 1-0.993-1.007l0.0655-10.505-6.905 7.5785a0.995 0.995 0 1 1-1.7045-0.429l-3.277-12.9985-5.1365 15.484a1.0005 1.0005 0 0 1-1.8705 0.073l-5.877-13.957-1.48 18.344a0.991 0.991 0 0 1-0.546 0.812 1 1 0 0 1-0.9775-0.0425l-13.3505-8.275 7.2975 19.4105a1.004 1.004 0 0 1-0.584 1.288 1.0035 1.0035 0 0 1-1.2915-0.584l-8.3285-22.16a1.0015 1.0015 0 0 1 1.465-1.202l14.455 8.96 1.6755-20.7935a0.997 0.997 0 0 1 0.8385-0.907 1.005 1.005 0 0 1 1.082 0.599l6.43 15.2785z" fill="#E9B73F" p-id="2195"></path><path d="M958.276 300.7585l-9.34-11.8585h9.34v-11.174l13.175 11.174 8.37-6.155v13.53l7.86 8.726h-12.435l-3.795 12.778-7.185-12.778-15.33 7.034 9.34-11.2765z" fill="#EFC76D" p-id="2196"></path><path d="M682.723 397.4375l4.26-3.26-6.98-10.9785-4.89 4.771 7.61 9.4675z m2.905-19.9355l4.715 10.183 4.94-1.4125-3.81-13.207-5.845 4.4365z m16.53-2.938l1.265 10.527 3.93 0.972 1.3-11.821-6.495 0.322zM1074.138 359.902l-4.26-3.26 6.98-10.9785 4.89 4.771-7.61 9.4675z m-2.9-19.9355l-4.72 10.183-4.94-1.4125 3.815-13.207 5.845 4.4365z m-16.535-2.938l-1.26 10.527-3.935 0.972-1.3-11.821 6.495 0.322z" fill="#F3390E" p-id="2197"></path><path d="M665.721 408.3685l25.59 5.107V396.255h45.635v15.9875h60.29V348.414h72.9v47.841l36.35-29.99v-21.06c0-11.711 9.49-21.205 21.2-21.205h0.005c11.71 0 21.205 9.494 21.205 21.205v3.209h59.25v17.851h15.91V357.385h33.07v38.87h39.445v76.232c0 6.2265-5.05 11.2745-11.275 11.2745h-408.3c-6.225 0-11.275-5.048-11.275-11.2745V408.3685z" fill="#B1C3E7" p-id="2198"></path><path d="M683.801 484.1625v-23.08l23.852-30.5h57.875v-29.741h68.3955l7.065-33.0535h95.3435l13.002 57.65 8.5585-47.953h63.2375l9.382 41.4775 65.859-0.3095s0.5395 35.745 0.819 54.4265a10.9315 10.9315 0 0 1-3.1355 7.8265 10.9265 10.9265 0 0 1-7.7795 3.2565h-402.474z" fill="#FFFFFF" p-id="2199"></path><path d="M965.073 479.809h-13.945v3.445h13.945v-3.445z m-147.01-3.035h-13.945v3.445h13.945v-3.445z m-27.145-0.025h-13.945v3.445h13.945v-3.445z m270.455-8.275h-13.945v3.445h13.945v-3.445z m-122.415-23.584h9.47v3.444h-9.47v-3.444z m-100.605 0h-7.865v3.296h7.865v-3.296z m4.115-6.81h-11.855v3.2815h11.855v-3.281z m92.395-0.6h13.945v3.444h-13.945v-3.444z m67.56-0.5665h-13.94v3.444h13.94v-3.444z m15.895-5.5805h-13.945v3.444h13.945v-3.444z" fill="#B1C3E7" p-id="2200"></path><path d="M684.801 461.098v22.23c0 0.5525-0.445 1-1 1-0.55 0-1-0.4475-1-1v-22.575c0-0.2235 0.075-0.4405 0.215-0.6165l23.965-30.5935a1 1 0 0 1 0.785-0.3835h57.76c0.555 0 1 0.4475 1 1v55.3425c0 0.552-0.445 1-1 1-0.55 0-1-0.448-1-1V431.1595h-56.27l-23.455 29.9385zM949.936 425.5855v59.916c0 0.5525-0.45 1-1 1-0.555 0-1-0.4475-1-1V425.5c0-0.057 0-0.113 0.01-0.169l8.15-47.329c0.085-0.48 0.5-0.831 0.985-0.831h63.8c0.455 0 0.855 0.3095 0.97 0.7515l12.175 47.329a0.9985 0.9985 0 0 1-0.72 1.217 1.0005 1.0005 0 0 1-1.215-0.719l-11.985-46.578h-62.18l-7.99 46.414zM1032.046 430.1595v55.3425c0 0.828 0.675 1.5 1.5 1.5 0.83 0 1.5-0.672 1.5-1.5V430.1595c0-0.828-0.67-1.5-1.5-1.5-0.825 0-1.5 0.672-1.5 1.5z" fill="#184EB0" p-id="2201"></path><path d="M1096.706 415.7545l-65.81 0.691 1.145 8.555v39.86l65.47-0.134-0.805-48.972z" fill="#184EB0" p-id="2202"></path><path d="M949.5395 425.7175h82.512v1.9425h-82.512z" fill="#184EB0" p-id="2203"></path><path d="M982.936 470.7515v4.6595h-17.96v-4.66h17.96z m0-2.591h-17.96v-20.735h17.96v20.735zM1017.846 470.7515v4.6595h-17.96v-4.66h17.96z m0-2.591h-17.96v-20.735h17.96v20.735z" fill="#5A80CD" p-id="2204"></path><path d="M853.439 476.041h24.7715c0.548 0 0.9975 0.448 0.9975 1s-0.4495 1-0.9975 1h-25.7735a0.9975 0.9975 0 0 1-0.9975-1v-25.229a14.1945 14.1945 0 0 1 4.1535-10.035 14.195 14.195 0 0 1 10.035-4.156v2a12.2035 12.2035 0 0 0-8.621 3.57 12.1935 12.1935 0 0 0-3.568 8.621v24.229z" fill="#B1C3E7" p-id="2205"></path><path d="M879.208 477.041V451.2a13.574 13.574 0 0 0-13.58-13.579v2c3.072 0 6.0175 1.22 8.19 3.3915a11.592 11.592 0 0 1 3.3905 8.1875v25.841c0 0.552 0.45 1 1.002 1a1.001 1.001 0 0 0 0.9975-1z" fill="#B1C3E7" p-id="2206"></path><path d="M864.325 438.625v38.374c0 0.552 0.445 1 0.998 1a1.002 1.002 0 0 0 1.002-1V438.625c0-0.5525-0.45-1-1.002-1a0.998 0.998 0 0 0-0.9975 1z" fill="#B1C3E7" p-id="2207"></path><path d="M878.209 451.567l-25.771 0.021a1.0015 1.0015 0 0 0-0.9995 1.001c0.0005 0.555 0.4495 0.9995 1.001 0.999l25.771-0.021a0.9985 0.9985 0 0 0 0.9995-1.0005c-0.0005-0.55-0.449-1-1.001-0.9995zM878.21 465.595l-25.771-0.016a1.001 1.001 0 0 0-0.001 2.0025l25.771 0.0155a1.001 1.001 0 0 0 0.001-2.0025z" fill="#B1C3E7" p-id="2208"></path><path d="M902.2615 476.041h11.885c0.5525 0 0.997 0.448 0.997 1s-0.445 1-0.997 1h-12.887a0.9975 0.9975 0 0 1-0.9975-1v-25.535a13.883 13.883 0 0 1 13.8845-13.885c0.5525 0 1.002 0.448 1.002 1s-0.45 1-1.002 1a11.8835 11.8835 0 0 0-11.885 11.885v24.535z" fill="#E9B73F" p-id="2209"></path><path d="M926.031 476.041v-24.535c0-6.564-5.3195-11.885-11.885-11.885a1.002 1.002 0 0 1-1.002-1c0-0.552 0.45-1 1.0025-1 7.67 0 13.884 6.2165 13.884 13.885v25.535c0 0.5525-0.445 1-0.9975 1h-12.8865a1.002 1.002 0 0 1-1.0025-1c0-0.552 0.45-1 1.0025-1h11.885z" fill="#E9B73F" p-id="2210"></path><path d="M913.148 438.625v38.374c0 0.552 0.445 1 0.9975 1a1.002 1.002 0 0 0 1.002-1V438.625c0-0.5525-0.45-1-1.002-1a0.998 0.998 0 0 0-0.9975 1z" fill="#E9B73F" p-id="2211"></path><path d="M927.0315 451.567l-25.771 0.021a1.0015 1.0015 0 0 0-0.9995 1.001c0.0005 0.555 0.4495 0.9995 1.001 0.999l25.771-0.021a0.9985 0.9985 0 0 0 0.9995-1.0005c-0.0005-0.55-0.449-1-1.001-0.9995zM927.0325 465.595l-25.771-0.016a1.001 1.001 0 0 0-0.001 2.0025l25.771 0.0155a1.001 1.001 0 0 0 0.001-2.0025zM780.88 472.3165h6.8175c0.5515 0 1.0015 0.448 1.0015 1s-0.45 1-1.0015 1h-7.8155a1 1 0 0 1-1.002-1v-25.0475a1 1 0 0 1 1.002-1h7.815c0.552 0 1.002 0.448 1.002 1s-0.45 1-1.0015 1h-6.817v23.0475z" fill="#E9B73F" p-id="2212"></path><path d="M788.699 473.3165v-25.0475c0-0.552-0.45-1-1.0015-1a0.999 0.999 0 0 0-0.9985 1v25.0475c0 0.552 0.447 1 0.9985 1a1.002 1.002 0 0 0 1.0015-1z" fill="#E9B73F" p-id="2213"></path><path d="M808.12 449.269v24.0475a1 1 0 0 1-2 0v-25.0475a1 1 0 0 1 1.002-1h7.815c0.552 0 1.002 0.448 1.002 1s-0.45 1-1.0015 1h-6.817z" fill="#B1C3E7" p-id="2214"></path><path d="M813.939 472.3165v-24.0475c0-0.552 0.447-1 0.9985-1 0.5515 0 1.0015 0.448 1.0015 1v25.0475c0 0.5525-0.45 1-1.0015 1h-7.8155a1 1 0 1 1 0-2h6.817z" fill="#B1C3E7" p-id="2215"></path><path d="M1047.051 484.084v-8.6915c0-0.5525 0.45-1 1-1h11.2c0.555 0 1 0.4475 1 1v8.6915h-2v-7.6915h-9.2v7.6915h-2z" fill="#E9B73F" p-id="2216"></path><path d="M1072.341 484.605v-9.2125c0-0.5525 0.45-1 1-1h11.205c0.55 0 1 0.4475 1 1v9.213h-2v-8.213h-9.205v8.213h-2z" fill="#184EB0" p-id="2217"></path><path d="M708.918 470.234h-11.205v13.815h11.205v-13.815z m23.83 0h-11.2v13.815h11.2v-13.815z m23.835 0h-11.2v13.815h11.2v-13.815z" fill="#184EB0" p-id="2218"></path><path d="M971.163 378.54l-2.745 47.8015a1.002 1.002 0 0 0 0.94 1.056 1 1 0 0 0 1.055-0.941l2.745-47.801a1 1 0 0 0-1.995-0.115z m13.09-0.225l0.025 47.878c0 0.552 0.45 1 1 0.9995 0.555 0 1-0.4485 1-1.0005l-0.025-47.878c0-0.552-0.45-1-1-1-0.55 0.001-1 0.449-1 1.001z m4.635 0l0.02 47.78c0 0.552 0.445 1 1 1 0.55-0.0005 1-0.4485 1-1.0005l-0.02-47.78c0-0.552-0.445-1-1-1-0.55 0-1 0.4485-1 1z m21.66 0.1415l6.8 47.508a0.9975 0.9975 0 0 0 1.13 0.848 1.005 1.005 0 0 0 0.85-1.1315l-6.8-47.508a0.998 0.998 0 0 0-1.13-0.8485 1.0055 1.0055 0 0 0-0.85 1.132z m-9.38-0.0825l2.815 47.4935a0.997 0.997 0 0 0 1.055 0.939 1.0035 1.0035 0 0 0 0.94-1.057l-2.815-47.494a0.997 0.997 0 0 0-1.055-0.939 0.997 0.997 0 0 0-0.94 1.0575z" fill="#184EB0" p-id="2219"></path><path d="M897.808 368.2765l5.265 60.703c0.05 0.55 0.535 0.9575 1.085 0.91a1.003 1.003 0 0 0 0.91-1.083l-5.265-60.703a1.004 1.004 0 0 0-1.085-0.91 1.003 1.003 0 0 0-0.91 1.083z m-35.205-0.146l-3.615 60.549a0.9975 0.9975 0 0 0 0.94 1.058c0.55 0.033 1.025-0.388 1.055-0.9385l3.615-60.55a0.997 0.997 0 0 0-0.935-1.0575 1.002 1.002 0 0 0-1.06 0.939z m14.445 0.0585l-0.06 60.529a1 1 0 1 0 2 0.002l0.06-60.529c0-0.552-0.45-1.0005-1-1.001-0.555-0.0005-1 0.447-1 0.999z m-30.44-0.73l-6.195 61.05a1.0015 1.0015 0 0 0 0.895 1.096c0.55 0.055 1.04-0.345 1.095-0.894l6.195-61.0505a1 1 0 0 0-0.89-1.0955 1.003 1.003 0 0 0-1.1 0.894z m68.86 0.839l6.565 60.2535a1.002 1.002 0 0 0 1.105 0.886 1.0025 1.0025 0 0 0 0.885-1.1025l-6.565-60.2535a1.002 1.002 0 0 0-1.105-0.8855 0.9985 0.9985 0 0 0-0.885 1.102z m6.6 0.0125l7.295 60.1625a1 1 0 0 0 1.115 0.8725 1.002 1.002 0 0 0 0.87-1.113l-7.295-60.163a1 1 0 0 0-1.115-0.8725 1.002 1.002 0 0 0-0.87 1.1135z m-64.745-0.183l-3.745 59.889a1 1 0 0 0 0.935 1.06c0.55 0.035 1.025-0.384 1.06-0.935l3.75-59.889a1.002 1.002 0 0 0-2-0.125z" fill="#184EB0" p-id="2220"></path><path d="M723.728 429.7565l-12.895 29.9275c-0.22 0.51 0.015 1.095 0.525 1.315 0.505 0.22 1.095-0.015 1.31-0.525l12.895-29.9265a1 1 0 0 0-0.52-1.314 1.001 1.001 0 0 0-1.315 0.523z m22.585 1.315l-2.9 28.8125a0.9995 0.9995 0 1 0 1.99 0.2l2.9-28.812a1 1 0 0 0-1.99-0.2005z m-32.91-1.4485l-18.535 29.731c-0.29 0.47-0.145 1.085 0.32 1.38 0.47 0.29 1.09 0.145 1.38-0.32l18.53-29.733c0.295-0.4685 0.15-1.0855-0.315-1.3775a1.0025 1.0025 0 0 0-1.38 0.3195z m43.805 1.404v28.627a1 1 0 1 0 2 0v-28.627c0-0.5515-0.45-1-1-1-0.555 0-1 0.4485-1 1z m-27.74-1.145l-8.065 28.782c-0.145 0.535 0.165 1.085 0.695 1.235 0.53 0.15 1.085-0.165 1.235-0.695l8.06-28.7825a0.9975 0.9975 0 0 0-0.695-1.2325 0.9965 0.9965 0 0 0-1.23 0.6935z" fill="#184EB0" p-id="2221"></path><path d="M830.697 430.095h118.235c0.555 0 1-0.4485 1-1 0-0.552-0.445-1-1-1h-118.235c-0.555 0-1 0.448-1 1 0 0.5515 0.445 1 1 1z" fill="#184EB0" p-id="2222"></path><path d="M765.106 459.361h-81.4c-0.55 0-1 0.448-1 1 0 0.5515 0.45 1 1 1h81.4c0.555 0 1-0.4485 1-1 0-0.552-0.445-1-1-1zM765.331 439.654h65.345v-14.383l4.415-27.254h-69.76v41.637z" fill="#184EB0" p-id="2223"></path><path d="M831.676 431.7895v53.188c0 0.552-0.45 1-1 1s-1-0.448-1-1V431.715c0-0.05 0.005-0.0985 0.01-0.1475l9.63-64.5505c0.075-0.49 0.495-0.8525 0.99-0.8525h95.245c0.465 0 0.87 0.325 0.975 0.7825l13.625 61.061c0.015 0.0715 0.025 0.1445 0.025 0.218v56.751c0 0.552-0.45 1-1 1s-1-0.448-1-1V428.3365l-13.43-60.1715h-93.58l-9.49 63.6245z" fill="#184EB0" p-id="2224"></path><path d="M695.6615 279.226v67.118c0 0.828-0.675 1.5-1.5 1.5-0.83 0-1.5-0.672-1.5-1.5V277.726c0-0.8285 0.67-1.5 1.5-1.5h117.54c0.83 0 1.5 0.672 1.5 1.5s-0.67 1.5-1.5 1.5h-116.04z" fill="#F2370C" p-id="2225"></path><path d="M810.2015 344.844V277.726c0-0.828 0.675-1.5 1.5-1.5 0.83 0 1.5 0.672 1.5 1.5v68.618c0 0.8285-0.67 1.5-1.5 1.5h-117.54c-0.83 0-1.5-0.672-1.5-1.5s0.67-1.5 1.5-1.5h116.04z" fill="#F2370C" p-id="2226"></path><path d="M707.1885 340.2885l89.47 0.295c0.825 0.0025 1.5-0.6675 1.505-1.495a1.504 1.504 0 0 0-1.495-1.505l-89.47-0.295a1.504 1.504 0 0 0-1.505 1.495 1.5045 1.5045 0 0 0 1.495 1.505z" fill="#F2370C" p-id="2227"></path><path d="M896.6315 295.157l7.92-12.4115v14.6845h15.445l-8.05 11.518v15.306l-10.365-6.378-16.96 9.38v-12.917l-14.045-5.391 14.045-3.7225-3.49-16.3255 15.5 6.257z" fill="#F3390E" p-id="2228"></path><path d="M1098.485 213.702l-3.7055 18.13 7.437 2.6165 6.595-19.715-10.326-1.0315zM1124.4235 219.626l-12.681 18.381 6.29 6.0305 15.373-16.21-8.982-8.2015zM1124.0525 250.705l16.037-7.7395 2.576 10.565-16.6515 5.525-1.9615-8.35zM624.76 220.8515l10.793-6.3155 11.0475 17.2925-6.182 6.3565-15.6585-17.3335zM650.635 204.118l6.715 20.2665 8.5535-0.683-3.099-20.257-12.169 0.6735zM675.5995 224.9375l8.53-19.314 8.4545 6.116-8.639 16.085-8.3455-2.887z" fill="#88C9D3" p-id="2229"></path><path d="M856.1765 757.3625l152.695 58.5 105.9-11.02 82.055-89.325-163.065-41.1-57.6 67.615-119.985 8.525v6.805z" fill="#FFFFFF" p-id="2230"></path><path d="M1188.5015 695.8175l8.325 4.53 16.57-20.12-11.67-5.81-13.225 21.4zM1207.5565 722.8525l-2.625 5.57 18.61 9.305 4.63-9.305-20.615-5.57zM1204.3565 707.1275l3.2 6.665 20.615-5.26-4.045-11.665-19.77 10.26z" fill="#EC4427" p-id="2231"></path><path d="M1018.3165 788.1575l-88.715-29.865-24.97 3.065 99.74 32.58 13.945-5.78z" fill="#5980CD" p-id="2232"></path><path d="M975.4315 740.5775l57.195-66.275a1.4985 1.4985 0 0 1 2.115-0.16c0.63 0.545 0.7 1.49 0.16 2.12l-57.605 66.75c-0.26 0.3-0.63 0.485-1.03 0.515l-118.59 8.43v5.29l153.865 57.085 102.26-10.085c0.82-0.085 1.555 0.52 1.64 1.345a1.505 1.505 0 0 1-1.345 1.64l-102.605 10.12c-0.225 0.025-0.455-0.005-0.67-0.085l-155.17-57.57a1.4985 1.4985 0 0 1-0.975-1.405v-7.735c0-0.785 0.605-1.44 1.39-1.495l119.365-8.485z" fill="#5980CD" p-id="2233"></path><path d="M1194.0115 716.3675l-160.605-39.63a1.5035 1.5035 0 0 1-1.1-1.815c0.2-0.805 1.015-1.295 1.815-1.1l163.065 40.24c0.515 0.125 0.925 0.515 1.075 1.02 0.155 0.51 0.03 1.06-0.33 1.45l-82.88 90.22a1.501 1.501 0 0 1-2.12 0.09 1.501 1.501 0 0 1-0.09-2.12l81.17-88.355z" fill="#5980CD" p-id="2234"></path><path d="M856.1765 750.5575l155.17 55.18 97.76-9.46 80.62-82.515 7.1 1.755-82.88 90.22-102.6 10.125-155.17-57.57v-7.735z" fill="#5980CD" p-id="2235"></path><path d="M975.6115 743.4275l137.785 54.25c0.77 0.3 1.645-0.08 1.945-0.85 0.305-0.77-0.075-1.64-0.845-1.945l-137.785-54.245c-0.77-0.305-1.645 0.075-1.945 0.845-0.305 0.77 0.075 1.64 0.845 1.945zM1147.8925 712.182l-92.246-24.6115-4.865 4.8325 91.05 25.6325 6.061-5.8535zM1061.374 763.303l-45.89-17.732-4.142 4.9895 46.6305 18.599 3.4015-5.8565zM1108.8045 780.783l-30.555-11.6265-4.176 6.065 31.385 11.435 3.346-5.8735zM1114.7675 772.035l-18.518-7.2175-3.099 5.8545 17.528 7.2345 4.089-5.871zM1022.9135 729.313l84.46 31.11c0.52 0.19 0.785 0.765 0.595 1.28a1.0045 1.0045 0 0 1-1.285 0.595l-85.78-31.59c-0.305-0.115-0.535-0.365-0.625-0.68a1.015 1.015 0 0 1 0.195-0.895l24.69-30.015c0.35-0.425 0.98-0.485 1.41-0.135 0.425 0.35 0.485 0.98 0.135 1.405l-23.795 28.925z" fill="#5980CD" p-id="2236"></path><path d="M1047.7785 699.093l-1.07 1.295c-0.35 0.43-0.98 0.49-1.405 0.14-0.43-0.35-0.49-0.985-0.14-1.41l1.495-1.815c0.255-0.31 0.675-0.435 1.06-0.32l89.07 27.005c0.32 0.095 0.57 0.345 0.665 0.66 0.1 0.32 0.03 0.665-0.175 0.925l-29.475 36.415a1 1 0 0 1-1.405 0.15c-0.43-0.35-0.495-0.98-0.15-1.405l28.54-35.265-87.01-26.375z" fill="#5980CD" p-id="2237"></path><path d="M1074.927 740.284l8.7945-15.944a3.549 3.549 0 0 1 4.7765-1.4185l0.0005 0.0005s1.178-3.015 3.6735-2.01c0 0 2.258 0.885 1.5345 3.195 0 0 0.794-2.107 3.315-1.0875 0 0 1.812 0.777 1.3325 2.98 0 0 1.143-1.333 2.962-0.658 0 0 2.092 0.697 0.9615 3.6715 0 0 1.8135-2.374 3.843-1.2 0 0 1.868 0.5105 0.598 4.586-2.3 5.8325-4.801 10.647-7.5715 18.124" fill="#C05C48" p-id="2238"></path><path d="M1085.9365 730.7685c-0.5-0.19-0.995-0.39-1.475-0.595-0.29-0.125-0.43-0.46-0.305-0.755 0.125-0.29 0.465-0.425 0.755-0.305 2.315 0.985 5.145 1.915 6.27 1.965 0.88 0.045 1.4-0.2 1.705-0.725 0.795-1.365 0.035-2.835-1.05-4.13-1.01-1.2-2.175-2.44-3.145-3.165-0.065-0.045-0.19-0.135-0.19-0.135l0.415-0.76 0.195 0.135c1.06 0.745 2.51 1.885 3.605 3.185 0.06 0.075 0.125 0.15 0.185 0.225 0.405-1.12 0.945-2.735 0.945-2.735 0.01 0.345-0.035 0.705-0.11 1.08 0.44-0.76 0.9-1.12 1.38-1.21 0 0-0.935 2.8-1.395 3.94-0.01 0.03-0.025 0.055-0.04 0.085 0.745 1.33 0.97 2.745 0.2 4.065-0.45 0.765-1.135 1.25-2.3 1.3l-0.13 0.325c-0.015 0.045-0.035 0.09-0.055 0.135-0.015 0.04-0.03 0.085-0.05 0.13-0.385 0.965 0.085 2.075 1.05 2.475 0.46 0.195 0.955 0.185 1.38 0.015 0.455-0.18 0.84-0.54 1.035-1.035l3.63-9.12c0.055 0.18 0.045 0.45-0.065 0.855 0.49-0.435 0.86-0.705 1.32-0.795l-3.665 9.11c-0.005 0.03-0.015 0.06-0.025 0.095-0.385 0.97 0.06 2.11 1.02 2.51 0.955 0.395 2.04-0.06 2.42-1.02l3.165-7.975-0.34 1.05c0.545-0.67 1.105-1.215 1.705-1.375l-3.33 8.395c0 0.065-0.015 0.13-0.04 0.195-0.15 0.37-0.055 0.86 0.14 1.29 0.195 0.42 0.5 0.785 0.87 0.92 1.695 0.62 2.77-0.47 2.77-0.47l-0.65 1.475s-1.32 0.535-2.46 0.09c-0.635-0.245-1.24-0.8-1.575-1.535a3.26 3.26 0 0 1-0.145-0.365 2.985 2.985 0 0 1-2.97 0.39c-0.875-0.365-1.485-1.11-1.74-1.965-0.2 0.145-0.42 0.265-0.645 0.35a2.983 2.983 0 0 1-2.48-0.13c0.135 0.37 0.26 0.745 0.365 1.125 0.115 0.4 0.21 0.805 0.285 1.21 1.08-0.125 2.225 0.05 3.06 0.43 0.285 0.13 0.415 0.475 0.285 0.765-0.135 0.285-0.475 0.415-0.765 0.285-0.66-0.305-1.575-0.445-2.435-0.345 0.01 0.11 0.015 0.215 0.02 0.325 0.03 0.935-0.145 2.16-0.935 2.8-0.46 0.375-0.915 0.445-1.295 0.355-0.365-0.08-0.685-0.32-0.905-0.655-0.285-0.44-0.4-1.055-0.235-1.62 0.305-1.05 1.09-1.725 2.065-2.08l0.02-0.005c-0.27-1.535-0.9-3.03-1.575-4.405-0.025-0.05-0.04-0.095-0.05-0.145-0.66 0.225-1.405 0.215-2.1-0.075-1.475-0.61-2.045-1.98-1.59-3.45z m5.445 9.265c-0.52 0.24-0.94 0.63-1.11 1.22-0.06 0.195-0.035 0.405 0.045 0.575 0.055 0.12 0.13 0.23 0.245 0.255 0.1 0.02 0.2-0.03 0.315-0.125 0.23-0.19 0.35-0.47 0.42-0.765 0.09-0.37 0.1-0.765 0.085-1.105v-0.055z m-4.36-8.87c-0.23 0.85 0.09 1.64 0.945 1.995a1.84 1.84 0 0 0 2.365-0.91l0.01-0.02c0.005-0.02 0.015-0.04 0.02-0.06l0.015-0.04c-0.865-0.165-2.08-0.52-3.355-0.965z" p-id="2239"></path><path d="M1040.5285 727.872l8.794-15.944a3.549 3.549 0 0 1 4.7765-1.4185l0.001 0.0005s1.1775-3.015 3.6735-2.0095c0 0 2.258 0.885 1.534 3.195 0 0 0.794-2.107 3.315-1.088 0 0 1.8125 0.777 1.3325 2.98 0 0 1.1435-1.333 2.962-0.658 0 0 2.0925 0.697 0.9615 3.6715 0 0 1.8135-2.374 3.8435-1.2 0 0 1.8675 0.5105 0.5975 4.586-2.3 5.8325-4.8005 10.647-7.5715 18.124" fill="#390F06" p-id="2240"></path><path d="M1051.5365 718.353c-0.5-0.19-0.995-0.385-1.475-0.59-0.29-0.125-0.425-0.465-0.305-0.755 0.125-0.29 0.465-0.43 0.755-0.305 2.315 0.985 5.145 1.91 6.27 1.965 0.88 0.04 1.4-0.2 1.705-0.725 0.8-1.37 0.04-2.835-1.05-4.13-1.01-1.2-2.175-2.44-3.145-3.165-0.065-0.05-0.19-0.14-0.19-0.14l0.42-0.76 0.195 0.14c1.055 0.745 2.505 1.88 3.6 3.185 0.065 0.075 0.125 0.15 0.185 0.225 0.41-1.12 0.945-2.735 0.945-2.735 0.01 0.34-0.035 0.705-0.11 1.075 0.44-0.76 0.905-1.12 1.38-1.205 0 0-0.935 2.8-1.39 3.94-0.015 0.03-0.025 0.055-0.045 0.08 0.745 1.335 0.97 2.75 0.2 4.065-0.445 0.77-1.135 1.25-2.3 1.3l-0.13 0.33c-0.015 0.045-0.035 0.09-0.055 0.13-0.015 0.045-0.03 0.085-0.045 0.13-0.385 0.97 0.085 2.08 1.045 2.48 0.46 0.19 0.955 0.185 1.385 0.015 0.455-0.18 0.835-0.54 1.03-1.035l3.63-9.12c0.055 0.175 0.045 0.445-0.065 0.855 0.49-0.44 0.86-0.705 1.325-0.8l-3.665 9.115-0.03 0.09c-0.385 0.97 0.06 2.11 1.025 2.515 0.95 0.395 2.035-0.065 2.415-1.025l3.165-7.975-0.335 1.05c0.54-0.67 1.1-1.215 1.7-1.375l-3.33 8.395c0 0.07-0.015 0.135-0.04 0.2-0.145 0.37-0.055 0.86 0.14 1.285 0.195 0.425 0.505 0.785 0.87 0.92 1.695 0.625 2.77-0.465 2.77-0.465l-0.65 1.475s-1.32 0.535-2.46 0.09c-0.635-0.245-1.235-0.805-1.575-1.535-0.055-0.12-0.1-0.245-0.14-0.365a2.9835 2.9835 0 0 1-2.975 0.385c-0.875-0.36-1.485-1.105-1.74-1.96-0.2 0.14-0.415 0.26-0.645 0.35-0.695 0.275-1.495 0.29-2.245-0.02-0.08-0.035-0.16-0.07-0.235-0.11 0.135 0.37 0.26 0.745 0.365 1.125 0.115 0.4 0.21 0.8 0.285 1.21 1.08-0.125 2.225 0.05 3.06 0.43 0.29 0.13 0.415 0.47 0.285 0.76-0.13 0.29-0.475 0.42-0.765 0.285-0.66-0.3-1.575-0.44-2.435-0.34 0.01 0.105 0.015 0.215 0.02 0.32 0.03 0.935-0.145 2.165-0.93 2.805-0.465 0.375-0.92 0.44-1.3 0.355-0.365-0.085-0.68-0.32-0.905-0.655-0.285-0.44-0.4-1.055-0.235-1.62 0.31-1.055 1.095-1.725 2.07-2.08l0.015-0.005c-0.27-1.54-0.895-3.03-1.575-4.405-0.02-0.05-0.04-0.095-0.045-0.145-0.665 0.22-1.405 0.215-2.105-0.075-1.47-0.61-2.045-1.985-1.59-3.455z m5.445 9.265c-0.52 0.245-0.94 0.635-1.11 1.225-0.06 0.195-0.035 0.4 0.045 0.57 0.055 0.12 0.13 0.23 0.245 0.26 0.1 0.02 0.2-0.035 0.32-0.13 0.23-0.185 0.345-0.465 0.415-0.765 0.09-0.365 0.1-0.765 0.09-1.1l-0.005-0.06z m-4.36-8.87c-0.23 0.85 0.095 1.64 0.945 1.995 0.915 0.38 1.95-0.025 2.365-0.905l0.01-0.02c0.005-0.02 0.015-0.04 0.02-0.065l0.015-0.035c-0.865-0.165-2.075-0.52-3.355-0.97z" fill="#FFFFFF" p-id="2241"></path><path d="M1007.526 737.726c-0.115 0.021-0.1225-0.043-0.478-0.6235-0.264-0.434-0.468-0.916-0.647-1.389a9.7785 9.7785 0 0 1-0.653-3.453c-0.0035-0.74 0.09-1.5015 0.4405-2.1615 0.902-1.68 3.286-2.374 4.607-0.768 0.32 0.3905 0.5175 0.86 0.671 1.342 0.0215 0.0665 0.0995 0.4875 0.187 0.5135 0.067 0.016 0.272-0.191 0.3215-0.2235a3.197 3.197 0 0 1 0.877-0.448c1.21-0.383 2.89-0.09 3.694 1.003 0.922 1.2585 0.0535 2.9695-0.888 3.912-2.0305 2.0335-8.132 2.296-8.132 2.296z" fill="#EC4427" p-id="2242"></path><path d="M1022.4535 737.2585l-2.266 0.075a0.611 0.611 0 1 1-0.04-1.22l3.459-0.1145a0.61 0.61 0 1 1 0.523 0.9505l-3.2695 4.8515a0.613 0.613 0 0 1-0.8475 0.1665 0.6125 0.6125 0 0 1-0.162-0.8475l2.603-3.8615zM1026.851 738.771c0.223 0.137 0.284 0.4275 0.288 0.7575-0.005 0.472-0.172 1.025-0.494 1.549-0.3195 0.52-0.74 0.923-1.1585 1.1415-0.2955 0.145-0.58 0.218-0.803 0.081a0.609 0.609 0 0 0-0.838 0.2015 0.609 0.609 0 0 0 0.199 0.8385c0.454 0.279 1.0185 0.323 1.6095 0.124 0.716-0.24 1.48-0.857 2.028-1.7495 0.551-0.8965 0.756-1.8575 0.646-2.605-0.09-0.6165-0.3845-1.1-0.838-1.3785a0.609 0.609 0 0 0-0.838 0.2015 0.609 0.609 0 0 0 0.199 0.8385zM1031.781 740.657c0.2225 0.137 0.284 0.4275 0.288 0.7575-0.0055 0.472-0.172 1.0245-0.494 1.549-0.32 0.52-0.74 0.923-1.1585 1.1415-0.296 0.145-0.58 0.218-0.803 0.081a0.609 0.609 0 0 0-0.838 0.2015 0.609 0.609 0 0 0 0.199 0.8385c0.454 0.279 1.018 0.323 1.609 0.124 0.7165-0.24 1.4805-0.857 2.0285-1.7495 0.551-0.8965 0.756-1.8575 0.6455-2.605-0.09-0.6165-0.384-1.1-0.838-1.379a0.609 0.609 0 0 0-0.838 0.202 0.609 0.609 0 0 0 0.1995 0.8385zM1036.689 742.495c0.223 0.1365 0.284 0.4275 0.288 0.757-0.005 0.472-0.1715 1.025-0.494 1.5495-0.3195 0.52-0.7395 0.9225-1.158 1.141-0.296 0.1455-0.58 0.218-0.803 0.081a0.609 0.609 0 0 0-0.838 0.2015 0.609 0.609 0 0 0 0.199 0.839c0.4535 0.2785 1.018 0.3225 1.609 0.1235 0.716-0.2395 1.48-0.857 2.0285-1.7495 0.5505-0.8965 0.7555-1.8575 0.645-2.6045-0.0895-0.617-0.384-1.1-0.8375-1.379a0.609 0.609 0 0 0-0.838 0.2015 0.609 0.609 0 0 0 0.199 0.8385zM1041.6025 744.332c0.2225 0.137 0.284 0.428 0.288 0.7575-0.0055 0.472-0.172 1.025-0.494 1.549-0.3195 0.52-0.74 0.923-1.1585 1.1415-0.296 0.1455-0.58 0.218-0.803 0.081a0.609 0.609 0 0 0-0.838 0.2015 0.609 0.609 0 0 0 0.199 0.839c0.454 0.2785 1.0185 0.3225 1.609 0.1235 0.7165-0.2395 1.4805-0.857 2.0285-1.7495 0.551-0.8965 0.756-1.8575 0.6455-2.6045-0.0895-0.617-0.384-1.1005-0.8375-1.379a0.609 0.609 0 0 0-0.8385 0.2015 0.609 0.609 0 0 0 0.1995 0.8385zM1046.5155 746.17c0.223 0.1365 0.284 0.4275 0.288 0.757-0.005 0.472-0.1715 1.025-0.494 1.549-0.319 0.52-0.7395 0.923-1.158 1.1415-0.296 0.145-0.58 0.218-0.803 0.081a0.609 0.609 0 0 0-0.838 0.2015 0.609 0.609 0 0 0 0.199 0.839c0.4535 0.2785 1.018 0.3225 1.609 0.1235 0.716-0.24 1.48-0.857 2.0285-1.7495 0.5505-0.8965 0.756-1.8575 0.645-2.605-0.089-0.6165-0.3835-1.1-0.8375-1.3785a0.609 0.609 0 0 0-0.838 0.2015 0.609 0.609 0 0 0 0.199 0.8385zM1051.424 748.0065c0.2225 0.137 0.284 0.428 0.288 0.7575-0.0055 0.4725-0.172 1.025-0.494 1.5495-0.3195 0.52-0.74 0.9225-1.1585 1.141-0.2955 0.1455-0.58 0.218-0.803 0.081a0.609 0.609 0 0 0-0.838 0.202 0.609 0.609 0 0 0 0.199 0.8385c0.454 0.2785 1.0185 0.3225 1.609 0.1235 0.7165-0.2395 1.4805-0.857 2.0285-1.749 0.551-0.897 0.756-1.858 0.6455-2.605-0.0895-0.617-0.384-1.1-0.8375-1.379a0.609 0.609 0 0 0-0.838 0.2015 0.609 0.609 0 0 0 0.199 0.8385zM1056.337 749.844c0.223 0.137 0.2845 0.428 0.288 0.7575-0.005 0.472-0.1715 1.025-0.4935 1.5495-0.32 0.52-0.74 0.9225-1.1585 1.141-0.296 0.1455-0.58 0.218-0.803 0.081a0.609 0.609 0 0 0-0.838 0.2015 0.609 0.609 0 0 0 0.199 0.839c0.4535 0.2785 1.018 0.3225 1.609 0.1235 0.716-0.2395 1.48-0.857 2.0285-1.7495 0.5505-0.8965 0.756-1.8575 0.6455-2.6045-0.09-0.617-0.384-1.1-0.838-1.379a0.609 0.609 0 0 0-0.838 0.2015 0.609 0.609 0 0 0 0.199 0.8385z" fill="#5980CD" p-id="2243"></path><path d="M1024.6835 742.3c-0.2225-0.137-0.2865-0.423-0.2865-0.75 0.0015-0.475 0.1745-1.03 0.494-1.55 0.322-0.5245 0.7355-0.925 1.158-1.141 0.292-0.148 0.579-0.225 0.802-0.088 0.2875 0.1765 0.6615 0.085 0.838-0.2015a0.609 0.609 0 0 0-0.199-0.8385c-0.454-0.279-1.0185-0.323-1.609-0.124-0.7125 0.242-1.4805 0.857-2.0315 1.754-0.548 0.892-0.749 1.8555-0.6425 2.6 0.0895 0.617 0.384 1.1005 0.8375 1.379 0.288 0.177 0.662 0.0855 0.8385-0.2015a0.609 0.609 0 0 0-0.1995-0.8385zM1029.6135 744.186c-0.223-0.137-0.287-0.4235-0.2865-0.7505 0.001-0.475 0.1745-1.029 0.4935-1.549 0.3225-0.525 0.736-0.9255 1.1585-1.1415 0.292-0.148 0.579-0.225 0.802-0.088 0.2875 0.1765 0.6615 0.085 0.838-0.2015a0.609 0.609 0 0 0-0.1995-0.839c-0.4535-0.2785-1.018-0.3225-1.609-0.1235-0.712 0.242-1.48 0.857-2.031 1.754-0.548 0.892-0.749 1.8555-0.643 2.6 0.09 0.617 0.3845 1.1005 0.838 1.379 0.288 0.177 0.662 0.0855 0.838-0.2015a0.609 0.609 0 0 0-0.199-0.8385zM1034.522 746.0235c-0.223-0.137-0.287-0.423-0.287-0.75 0.0015-0.475 0.175-1.0295 0.494-1.55 0.322-0.524 0.7355-0.925 1.1585-1.141 0.2915-0.148 0.579-0.225 0.8015-0.088 0.2875 0.177 0.662 0.085 0.838-0.2015a0.609 0.609 0 0 0-0.199-0.8385c-0.454-0.279-1.018-0.323-1.609-0.124-0.712 0.242-1.48 0.857-2.031 1.754-0.548 0.8925-0.7495 1.8555-0.643 2.6 0.09 0.617 0.384 1.1005 0.838 1.3795 0.2875 0.1765 0.6615 0.085 0.838-0.202a0.609 0.609 0 0 0-0.199-0.8385zM1039.435 747.861c-0.223-0.137-0.287-0.423-0.2865-0.75 0.001-0.475 0.1745-1.0295 0.494-1.55 0.322-0.5245 0.735-0.925 1.158-1.141 0.292-0.148 0.579-0.225 0.802-0.088 0.2875 0.177 0.6615 0.085 0.838-0.2015a0.609 0.609 0 0 0-0.199-0.8385c-0.454-0.279-1.0185-0.323-1.6095-0.124-0.712 0.242-1.48 0.857-2.031 1.754-0.548 0.892-0.749 1.8555-0.643 2.6 0.09 0.617 0.3845 1.1005 0.838 1.3795 0.288 0.1765 0.662 0.085 0.838-0.202a0.609 0.609 0 0 0-0.199-0.8385zM1044.3485 749.6985c-0.223-0.137-0.287-0.423-0.287-0.75 0.0015-0.475 0.175-1.03 0.494-1.55 0.322-0.5245 0.7355-0.925 1.1585-1.141 0.2915-0.148 0.579-0.225 0.8015-0.088 0.288 0.1765 0.662 0.085 0.838-0.2015a0.609 0.609 0 0 0-0.199-0.8385c-0.4535-0.279-1.018-0.323-1.609-0.124-0.712 0.242-1.48 0.857-2.031 1.754-0.548 0.892-0.7495 1.8555-0.643 2.6 0.09 0.617 0.384 1.1005 0.838 1.3795 0.2875 0.1765 0.6615 0.085 0.838-0.202a0.609 0.609 0 0 0-0.199-0.8385zM1049.2565 751.5355c-0.2225-0.1365-0.287-0.423-0.2865-0.75 0.001-0.475 0.1745-1.0295 0.494-1.55 0.322-0.524 0.735-0.925 1.158-1.1405 0.292-0.1485 0.579-0.225 0.802-0.0885 0.2875 0.177 0.6615 0.0855 0.838-0.2015a0.609 0.609 0 0 0-0.199-0.8385c-0.454-0.2785-1.0185-0.323-1.609-0.1235-0.7125 0.2415-1.4805 0.8565-2.0315 1.7535-0.548 0.8925-0.749 1.8555-0.643 2.6 0.09 0.6175 0.3845 1.1005 0.838 1.3795 0.288 0.1765 0.662 0.085 0.838-0.202a0.609 0.609 0 0 0-0.199-0.8385zM1054.17 753.373c-0.223-0.137-0.287-0.423-0.287-0.75 0.0015-0.475 0.175-1.0295 0.494-1.55 0.3225-0.524 0.7355-0.925 1.1585-1.1405 0.2915-0.1485 0.579-0.225 0.8015-0.0885 0.288 0.177 0.662 0.0855 0.838-0.2015a0.609 0.609 0 0 0-0.199-0.8385c-0.4535-0.279-1.018-0.323-1.609-0.124-0.712 0.242-1.48 0.857-2.031 1.754-0.548 0.8925-0.749 1.8555-0.643 2.6 0.09 0.617 0.384 1.1005 0.838 1.3795 0.2875 0.1765 0.6615 0.085 0.838-0.202a0.609 0.609 0 0 0-0.199-0.8385z" fill="#5980CD" p-id="2244"></path><path d="M338.6385 654.079l116.076-0.03 12.6635 0.03h0.01l91.0515 0.57a1.675 1.675 0 1 1-0.0205 3.35l-91.041-0.565H336.8545l-1.6735-1.785c8.815-140.14-3.115-211.768-20.724-247.263-10.2715-20.705-22.403-28.865-33.374-31.084-16.27-3.291-29.7515 6.411-29.7515 6.411a1.678 1.678 0 0 1-2.3405-0.3815 1.678 1.678 0 0 1 0.3815-2.3405s14.6715-10.5575 32.375-6.976c11.678 2.3625 24.781 10.843 35.714 32.88 17.6565 35.592 29.84 107.249 21.177 247.184zM418.815 379.47l69.431 3.6135c22.12 1.151 40.75 16.9295 45.5275 38.559 4.7415 22.695 9.3735 56.3485 12.531 106.6065a1.6805 1.6805 0 0 0 1.779 1.57 1.6825 1.6825 0 0 0 1.5685-1.78c-3.1725-50.483-7.833-84.285-12.6-107.101-5.106-23.1215-25.005-39.974-48.632-41.2035l-69.431-3.6135a1.677 1.677 0 0 0-0.174 3.349z" fill="#EE7E5C" p-id="2245"></path><path d="M701.758 753.414l3.795-46.28a45.79 45.79 0 0 0-12.015-34.815 45.79 45.79 0 0 0-33.775-14.695c-39.565 0.15-89.692 0.335-103.8885 0.385-3.081 0.01-5.5915-2.47-5.616-5.55-0.401-49.875-1.85-90.725-3.954-124.21a1.6795 1.6795 0 0 1 1.5685-1.78 1.68 1.68 0 0 1 1.779 1.57c2.107 33.535 3.5585 74.44 3.96 124.395a2.238 2.238 0 0 0 2.25 2.22c14.197-0.05 64.321-0.235 103.886-0.385a49.116 49.116 0 0 1 36.25 15.775 49.122 49.122 0 0 1 12.895 37.365c-1.98 24.195-3.92 47.805-3.92 47.805a1.6745 1.6745 0 0 1-1.655 1.54s-275.7705 2.515-385.124 3.515c-26.56 0.245-49.745-17.94-55.8385-43.795a5186.14 5186.14 0 0 1-9.2925-40.405c-14.148-62.675-32.3615-148.98-41.785-216.369a79.4855 79.4855 0 0 1 82.895-90.065c58.254 3.022 124.816 6.486 124.816 6.486a1.6775 1.6775 0 0 1 1.5875 1.7615 1.6775 1.6775 0 0 1-1.7615 1.5875s-66.562-3.464-124.816-6.486a76.1325 76.1325 0 0 0-79.398 86.2585c9.41 67.2965 27.603 153.4915 41.7335 216.0915 3.3885 15.01 6.5435 28.66 9.285 40.37 5.734 24.33 27.552 41.44 52.544 41.21l383.5945-3.5z" fill="#EE7E5C" p-id="2246"></path><path d="M569.913 657.979s18.12-0.525 28.35 17.285c7.89 13.74 9.045 37.665-10.095 79.44a1.7035 1.7035 0 0 0 0.835 2.255c0.855 0.39 1.865 0.015 2.255-0.84 19.875-43.375 18.145-68.28 9.955-82.545-11.31-19.69-31.41-18.99-31.41-18.99-0.935 0.025-1.67 0.815-1.645 1.75a1.7025 1.7025 0 0 0 1.755 1.645zM296.6625 755.869l2.079 10.37 7.032 39.05c1.279 7.1 7.4615 12.27 14.68 12.27h0.0015c7.367 0 13.645-5.345 14.8215-12.615 2.704-16.72 7.4845-46.29 7.4845-46.29a1.7 1.7 0 0 0-3.356-0.54l-7.485 46.285c-0.91 5.625-5.767 9.76-11.465 9.76h-0.001c-5.573 0-10.347-3.99-11.335-9.475l-7.038-39.08c-0.0015-0.01-0.0035-0.025-0.006-0.035l-2.0795-10.37a1.7055 1.7055 0 0 0-2.001-1.335 1.705 1.705 0 0 0-1.3325 2.005zM654.2615 755.7115l9.113 50.605c1.28 7.11 7.4665 12.28 14.6895 12.28h0.001c7.3635 0 13.64-5.335 14.823-12.605l8.145-50.075a1.7 1.7 0 0 0-3.356-0.545l-8.145 50.075c-0.915 5.62-5.771 9.75-11.467 9.75h-0.001c-5.5775 0-10.355-3.99-11.3435-9.48l-9.1125-50.605a1.696 1.696 0 0 0-1.975-1.37 1.698 1.698 0 0 0-1.3715 1.97z" fill="#EE7E5C" p-id="2247"></path><path d="M635.031 657.929c13.105 3.25 25.645 4.23 35.26 23.07 3.46 6.775 4.61 14.765 4.415 26.05-0.2 11.595-1.835 26.59-4.015 47.145-0.095 0.935 0.58 1.775 1.515 1.87 0.93 0.1 1.77-0.58 1.87-1.51 2.19-20.685 3.83-35.775 4.03-47.45 0.205-11.985-1.115-20.455-4.79-27.65-10.255-20.1-23.485-21.36-37.465-24.825-0.91-0.225-1.835 0.33-2.06 1.24-0.225 0.91 0.33 1.835 1.24 2.06z" fill="#EE7E5C" p-id="2248"></path><path d="M604.907 657.929c13.11 3.25 26.455 4.22 36.08 23.07 3.46 6.775 4.61 14.765 4.415 26.05-0.2 11.595-1.835 26.59-4.015 47.145-0.095 0.935 0.58 1.775 1.515 1.87 0.93 0.1 1.77-0.58 1.87-1.51 2.19-20.685 3.83-35.775 4.03-47.45 0.205-11.985-1.115-20.455-4.79-27.65-10.25-20.09-24.32-21.365-38.29-24.825-0.91-0.225-1.835 0.33-2.06 1.24-0.225 0.91 0.33 1.835 1.245 2.06z" fill="#EE7E5C" p-id="2249"></path><path d="M194.796 802.3925s13.2735-57.465 60.389-61.745l103.218 0.145s-0.889-12.505 10.0795-12.085c0 0 10.82 0.665 16.828-0.825 0 0 4.391-8.74 6.183-12.475 0.7775-1.615-15.6635-12.475-13.035-15.295 0 0 7.735-4.325 21.945 2.855l38.713-3.755-7.5-20.535s0.5195-11.9 20.4545 4.085c0 0 24.9225 20.835 29.5515 67.49l-0.363 54.585s42.124 13.65 42.228 25.695a2.8325 2.8325 0 0 1-0.8235 2.025 2.8315 2.8315 0 0 1-2.017 0.84h-9.3455s2.765 2.62 4.1625 5.96a4.0475 4.0475 0 0 1-0.419 3.855 4.0535 4.0535 0 0 1-3.47 1.74c-31.5555-1.09-225.94-7.835-225.94-7.835s23.982 18.39 19.6335 28.055a11.272 11.272 0 0 1-12.421 4.635c-2.5775-0.72-4.791-1.335-4.791-1.335l-93.2605-52.305h-73.84s0.572-13.79 73.84-13.775z" fill="#FFD173" p-id="2250"></path><path d="M431.057 798.0375s68.8575 27.65 81.1225 36.8c0.185 0.14 0.534 0.255 0.6925 0.385 0.642 0.525-1.505-1.78-1.505-1.78l3.4875-0.055s-0.485-0.38-0.7555-0.575c-12.969-9.425-81.9225-37.56-81.9225-37.56a1.504 1.504 0 0 0-1.9515 0.835 1.499 1.499 0 0 0 0.832 1.95z" p-id="2251"></path><path d="M484.305 805.6825l-2.994-0.68s-0.044 8.395 0.083 13a1.506 1.506 0 0 0 1.54 1.46 1.5045 1.5045 0 0 0 1.459-1.545c-0.1185-4.285-0.088-12.235-0.088-12.235zM278.6225 825.9075c2.545 2.595 11.1385 11.16 11.1385 11.16s-3.655 0.365-4.2265-0.235c-5.5365-5.795-9.83-9.38-9.83-9.38-0.857-0.48-1.08-1.135-0.6675-1.96 9.2525-21.195 8.96-35.6 4.625-45.44-6.3775-14.48-20.4625-18.565-20.4625-18.565a1.5045 1.5045 0 0 1-1.025-1.86 1.5 1.5 0 0 1 1.857-1.025s15.412 4.425 22.3765 20.24c4.4975 10.215 5.522 25.265-3.7855 47.065zM367.022 756.7625c0.5395 0.21 9.136 3.425 32.965 2.94a1.501 1.501 0 0 1 1.53 1.47 1.501 1.501 0 0 1-1.47 1.53c-25.5615 0.52-34.216-3.185-34.216-3.185l-0.071-0.035c-4.3255-2.09-6.767-5.745-8.111-9.405-1.378-3.745-1.591-9.345-1.591-9.345l2.9975 0.02s0.1815 4.95 1.409 8.29c1.0965 2.985 3.0425 6.005 6.5575 7.72zM402.336 716.8875s-3.713 6.655-14.787 7.89c-0.2085 0.02-0.6335 0.065-0.6335 0.065l-1.616 3.115s0.497-0.02 0.741-0.035c14.34-0.775 18.938-9.615 18.938-9.615a1.4985 1.4985 0 0 0-0.611-2.03 1.5015 1.5015 0 0 0-2.0315 0.61zM400.44 702.9825l-3.127-1.46-7.767 11.35c0.806 0.73 1.611 1.5 1.951 2.435l8.943-12.325zM446.298 696.4025l-8.463-0.255 1.155 3.19 7.308 0.065a1.5 1.5 0 1 0 0-3z" p-id="2252"></path><path d="M374.827 729.1325s4.431 23.725-16.1465 17.415c0 0-2.977-15.725 6.497-17.415 4.02-0.96 6.695-0.31 9.6495 0zM461.3285 764.1425c1.3675-5.7 4.49-10.885 9.6845-13.965 3.385-2.01 7.4815-3.07 11.1925-1.24a1.501 1.501 0 0 1 0.682 2.01 1.503 1.503 0 0 1-2.0085 0.68c-2.772-1.365-5.8075-0.37-8.336 1.13-4.79 2.84-7.4805 7.775-8.5225 13.095 2.3115 1.885 4.01 4.515 4.6 7.46 0.197 0.985 0.3 2.255 0.048 3.365-0.215 0.945-0.672 1.78-1.4285 2.37-1.952 1.535-4.025 0.355-5.122-1.41-1.313-2.115-1.6575-4.775-1.5985-7.21 0.026-1.065 0.1065-2.135 0.2435-3.195-0.3815-0.22-0.7775-0.415-1.184-0.59-5.9915-2.52-10.983-0.265-14.607 3.825-3.837 4.335-6.203 10.665-6.701 15.97-0.274 2.915-0.3475 5.88-0.2455 8.81 0.012 0.345 0.117 2.08 0.135 2.38a1.501 1.501 0 0 1-2.204 1.865c-0.1925-0.13-0.612-0.53-0.747-1.295-0.1285-0.73-0.1665-2.4-0.182-2.845-0.107-3.055-0.029-6.15 0.2565-9.195 0.5515-5.88 3.1925-12.88 7.4425-17.675 4.4625-5.04 10.638-7.71 18.016-4.605 0.1975 0.085 0.393 0.175 0.586 0.265z m2.228 5.435c-0.018 0.305-0.03 0.615-0.0375 0.92-0.0455 1.87 0.1385 3.935 1.147 5.555 0.1165 0.185 0.2575 0.37 0.421 0.515 0.091 0.08 0.184 0.215 0.2995 0.125 0.29-0.23 0.364-0.61 0.408-0.985 0.073-0.62-0.01-1.275-0.1155-1.805-0.3215-1.605-1.076-3.085-2.1225-4.325z" p-id="2253"></path><path d="M321.3165 312.99s-7.903-15.6135-18.452-5.422c0 0-3.736 6.054 4.607 18.215l-18.6065 36.296s-20.2625 2.2525-30.382 3.4755c-18.995 2.2955-51.1535 5.105-64.964 25.321-9.506 13.9165-9.487 26.38-9.525 37.34 16.6795 58.867 33.36 117.731 45.3635 188.796 0 0 12.2345 44.83 55.705 45.75 39.848 0.845 164.93-9.695 169.0885-6.545l-0.341-10.62 8.7765 0.05 4.145 0.01 1.213 2.85s33.781 5.225 45.8395 22.625l69.31-5.175s-1.97-15.045-10.54-20.315l22.7-0.015 69.275 180.73 110.045 0.095s-8.4-8.545-17.28-11.525l-78.585-224.675s-21.075-58.55-105.855-55.755l-1.075-16.365s55.825-2.125 61.62-40.1775c0 0 18.24-48.2085-60.045-85.78l-0.54-54.0495s-9.655-38.398-31.68-45.145c0 0-30.932-11.7925-53.5385-3.877 0 0-18.851 12.535-28.22 24.8525l-45.6915 56.138-74.1165-0.49-0.13-6.1695s16.9165-1.446 21.309-11.08l13.377-26.5865s-19.966-41.2915-52.807-12.777z" fill="#FFFFFF" p-id="2254"></path><path d="M530.76 659.6755s2.465 4.505 3.05 9.885c0.1 0.93 0.94 1.61 1.875 1.505a1.7 1.7 0 0 0 1.505-1.87c-0.655-6.075-3.45-11.155-3.45-11.155a1.7 1.7 0 0 0-2.98 1.635zM544.995 658.161s2.465 4.505 3.05 9.885c0.1 0.93 0.94 1.61 1.875 1.505a1.7 1.7 0 0 0 1.505-1.87c-0.655-6.075-3.45-11.155-3.45-11.155a1.7 1.7 0 0 0-2.98 1.635zM557.3625 656.5545s2.465 4.505 3.05 9.885c0.1 0.93 0.94 1.61 1.875 1.505a1.7 1.7 0 0 0 1.505-1.87c-0.655-6.075-3.45-11.155-3.45-11.155a1.7 1.7 0 0 0-2.98 1.635zM367.421 322.81c-5.355-9.953-8.386-21.2885-8.386-33.3125 0-39.504 32.723-71.576 73.028-71.576 39.725 0 72.084 31.155 73.0075 69.87-6.1125 0.4985-15.6925 3.305-30.007 12.193 0 0-3.42 0.019-53.876 60.3-20.3305-2.9815-37.9325-14.188-49.165-30.0515l3.279-5.52-7.8805-1.9035z" p-id="2255"></path><path d="M435.577 532.5865l14.145-0.185 4.429 123.815-159.394 6.47s0.2685-0.035 1.0935-0.23c13.954-3.26 42.599-12.675 78.4285-38.285 25.0745-17.925 33.5385-49.375 61.298-91.585z" fill="#1950B0" p-id="2256"></path><path d="M349.1875 660.503a3.004 3.004 0 0 1 1.3115-2.99l11.3335-7.465a2.996 2.996 0 0 1 4.156 0.855c0.911 1.38 0.528 3.24-0.855 4.155l-7.67 5.05-8.276 0.395z m33.037-1.32c-0.02-0.075-0.0375-0.145-0.053-0.22-0.3325-1.62 0.7145-3.21 2.3365-3.54l13.2965-2.725c1.622-0.335 3.209 0.715 3.541 2.335a3.002 3.002 0 0 1-1.678 3.325l-17.443 0.825z m32.4245-1.325l-0.0315-0.04a2.997 2.997 0 0 1 0.346-4.225l10.3485-8.785a3.005 3.005 0 0 1 4.2285 0.345c1.0715 1.265 0.916 3.16-0.346 4.23l-9.715 8.245-4.8305 0.23z m26.525-1.185l-0.9525-0.35a3.003 3.003 0 0 1-1.7725-3.855 3 3 0 0 1 3.854-1.775l11.7415 4.345 0.03 1.025-12.9005 0.61z m-97.68-5.71a3.001 3.001 0 0 1-2.79 3.345l-5.7055 0.28c0.5185-0.22 1.8595-0.745 2.382-0.975 2.119-0.925 3.945-1.575 6.1135-2.65z m32.043-22.345l8.4275 8.03a3.001 3.001 0 0 1 0.1485 4.24 3.006 3.006 0 0 1-4.24 0.15l-8.792-8.395c1.525-1.28 2.971-2.65 4.456-4.025z m35.538 4.6l-12.8765-4.29a3.0065 3.0065 0 0 0-3.795 1.9 3.003 3.003 0 0 0 1.898 3.795l12.8765 4.29c1.571 0.525 3.2715-0.33 3.7945-1.9a3.0025 3.0025 0 0 0-1.898-3.795z m20.0735-8.445l8.7495 10.375a3.0045 3.0045 0 0 0 4.227 0.36 3.0045 3.0045 0 0 0 0.36-4.23l-8.75-10.375c-1.0675-1.265-2.9615-1.43-4.227-0.36-1.2655 1.065-1.427 2.96-0.36 4.23z m-11.596-5.585l-2.577-13.325a3.001 3.001 0 0 0-3.515-2.375 3.002 3.002 0 0 0-2.3755 3.515l2.5775 13.325a3.0005 3.0005 0 0 0 3.515 2.375c1.625-0.31 2.69-1.885 2.375-3.515z m-26.4375-11.18l1.9685 0.53a3.003 3.003 0 0 1 1.8975 3.795 2.998 2.998 0 0 1-3.794 1.9l-3.702-1.22c1.24-1.66 2.4665-3.25 3.63-5.005z m58.9295 3.195a2.99 2.99 0 0 1-2.0185-0.085l-12.5685-5.125a3 3 0 0 1 2.2645-5.555l12.1505 4.95 0.172 5.815z m-47.632-22.605l11.5025-5.08a3.001 3.001 0 0 1 2.3895 5.505l-12.4515 5.405c-1.519 0.66-2.913 0.425-3.572-1.095-0.05-0.115 1.384-3.035 2.132-4.735z m28.8985-12.16l-4.8425 12.68a3.0035 3.0035 0 0 0 1.732 3.875 3.001 3.001 0 0 0 3.873-1.735l4.842-12.68a2.998 2.998 0 0 0-1.7315-3.87 3.0025 3.0025 0 0 0-3.873 1.73z m17.522-6.345a2.9885 2.9885 0 0 1-1.082-1.725l-2.882-13.265a2.9985 2.9985 0 0 1 2.294-3.565c0.38-0.085 0.76-0.09 1.122-0.03l0.548 18.585z m-32.524-5.5a2.9855 2.9855 0 0 1 0.7545 2.065 2.999 2.999 0 0 1-3.0765 2.92l-0.415-0.01c0.9385-1.695 1.851-3.355 2.7375-4.975z m17.8125-23.45l-8.825 10.31a3.002 3.002 0 0 0 0.3285 4.23 3.0015 3.0015 0 0 0 4.23-0.33l8.825-10.31c1.077-1.26 0.93-3.155-0.328-4.23a3.0015 3.0015 0 0 0-4.23 0.33z" fill="#003595" p-id="2257"></path><path d="M212.956 535.8915l15.433 76.33c6.13 30.32 33.319 51.735 64.231 50.595 36.182-1.33 82.0875-16.27 112.3015-74.385l-43.9435-43.91c-17.8225 10.9-31.196 22.085-55.464 38.2-38.4955 17.245-74.4965 7.745-92.558-46.83z" fill="#3565BD" p-id="2258"></path><path d="M320.0865 659.028l-6.373 1.43-0.6825-0.9a2.997 2.997 0 0 1 0.574-4.2c1.3175-1.005 3.202-0.745 4.2035 0.57l2.278 3.1z m-52.928-0.425l3.5495-6.21a3.0045 3.0045 0 0 1 3.983-1.46c1.503 0.7 2.1575 2.485 1.461 3.985l-2.135 5.89c-2.976-0.71-5.6705-1.655-6.858-2.205z m27.96-8.245l13.446-1.855a3.007 3.007 0 0 0 2.562-3.385 3.0015 3.0015 0 0 0-3.382-2.56l-13.4455 1.855a2.999 2.999 0 0 0-2.562 3.38 3.005 3.005 0 0 0 3.382 2.565z m57.721-4.505l-6.0825 0.915c-1.647 0.175-3.124-1.025-3.2965-2.67-0.173-1.645 1.024-3.125 2.6705-3.295l13.4995-1.415c1.2095-0.125 1.587-0.26 2.164 0.725-3.03 2.005-6.178 4.355-8.955 5.74z m-114.691-10.485c0.0265-0.84 0.3075-1.445 1.01-2.015a3.001 3.001 0 0 1 4.22 0.435l8.561 10.535c1.0435 1.28 0.8485 3.175-0.436 4.22-0.1985 0.16-0.533 0.285-0.755 0.39-6.1595-5.02-9.37-8.96-12.6-13.565z m84.351-6.225l1.812 13.45c0.221 1.64 1.733 2.795 3.373 2.57a2.998 2.998 0 0 0 2.5735-3.37l-1.812-13.455c-0.221-1.64-1.733-2.79-3.374-2.57a3 3 0 0 0-2.572 3.375z m-57.467 6.05l12.681 4.835a3.001 3.001 0 0 0 3.8725-1.73 3.003 3.003 0 0 0-1.7335-3.875l-12.681-4.84c-1.547-0.59-3.282 0.19-3.8725 1.735-0.59 1.545 0.1865 3.28 1.7335 3.875z m35.995-9.7l-8.56-10.535c-1.045-1.28-2.9355-1.48-4.2205-0.435a3.002 3.002 0 0 0-0.436 4.22l8.561 10.535a3 3 0 0 0 4.656-3.785z m49.623-1.21l-7.855-11.07a3 3 0 1 0-4.893 3.475l7.8545 11.065a3 3 0 0 0 4.1825 0.71c1.35-0.955 1.6685-2.83 0.711-4.18z m14.8745-13.02l-1.827 13.45a3.006 3.006 0 0 0 2.5685 3.38c1.641 0.22 3.154-0.93 3.3765-2.57l1.8275-13.45c0.222-1.64-0.9285-3.155-2.5695-3.375a2.9975 2.9975 0 0 0-3.376 2.565z m-49.8125 6.945l4.9795-12.625a3.0065 3.0065 0 0 0-1.6905-3.895c-1.541-0.605-3.284 0.15-3.892 1.69l-4.9785 12.63a2.999 2.999 0 1 0 5.5815 2.2z m-64.922-5.135l-13.571 0.215c-1.6555 0.03-2.979 1.395-2.9525 3.05a3.0015 3.0015 0 0 0 3.048 2.95l13.5715-0.215c1.655-0.03 2.978-1.395 2.9515-3.05a3.0015 3.0015 0 0 0-3.0475-2.95z m16.31-10.875l3.4065 13.14a3.004 3.004 0 0 0 3.6575 2.15 3 3 0 0 0 2.151-3.655l-3.4075-13.14a3 3 0 0 0-5.8075 1.505z m121.702 11.645l-6.545-8.225a3.0015 3.0015 0 0 1 0.5245-4.21 3.005 3.005 0 0 1 4.21 0.525l5.7425 6.655a224.404 224.404 0 0 1-3.932 5.255z m-164.11-19.615l8.834 4.805a3.002 3.002 0 0 1 1.1815 4.075 3.001 3.001 0 0 1-4.0755 1.18l-4.361-2.475c-0.471-2.655-1.1935-5.28-1.579-7.585z m125.5775-4.705l-10.8925 8.1c-1.3295 0.985-1.606 2.865-0.618 4.195a3.003 3.003 0 0 0 4.197 0.62l10.893-8.1a2.999 2.999 0 0 0 0.618-4.195 3.0035 3.0035 0 0 0-4.1975-0.62z m-97.621-1.1c2.036 0.745 3.953 1.335 6.145 1.865-0.074 0.14-0.4585 0.615-0.5575 0.745l-8.22 10.8c-1.003 1.315-2.887 1.575-4.205 0.57a3.002 3.002 0 0 1-0.57-4.205l7.4075-9.775z m41.511-0.61l6.625 8.275a3.001 3.001 0 0 1-0.4365 4.22 2.9965 2.9965 0 0 1-4.22-0.44l-8.2805-10.245c2.005-0.525 3.9375-1.02 6.312-1.81z m79.943 5.8l4.689-12.74a3 3 0 0 0-1.779-3.85 3.0025 3.0025 0 0 0-3.8515 1.78l-4.6885 12.735a3.0055 3.0055 0 0 0 1.779 3.855 3.0025 3.0025 0 0 0 3.851-1.78z m27.445 1.045l-11.27-1.45c-1.645-0.185-2.8295-1.675-2.6435-3.32a2.997 2.997 0 0 1 3.3195-2.64l13.325 1.63c-0.7155 1.84-1.6875 3.805-2.731 5.78z m-69.7555-8.5l-13.406-2.125c-1.635-0.255-3.173 0.86-3.4325 2.495-0.2595 1.635 0.858 3.175 2.493 3.43l13.406 2.125a2.999 2.999 0 0 0 3.4325-2.49 3.0045 3.0045 0 0 0-2.493-3.435z m-104.47-17.535c2.6395 3.405 5.154 6.205 7.7165 8.52l1.245 4.8a3.0035 3.0035 0 0 1-2.1505 3.66 3.0035 3.0035 0 0 1-3.657-2.15l-3.4075-13.14c-0.124-0.48 0.151-1.235 0.254-1.69z m107.0765-5.175l8.118 5.565a3.0025 3.0025 0 0 1 0.8135 4.165 3.0035 3.0035 0 0 1-4.164 0.81l-9.9035-6.71c1.7925-1.235 3.42-2.61 5.136-3.83z m37.191-2.195l-12.9815 3.96c-1.5835 0.485-2.477 2.165-1.9935 3.745 0.483 1.585 2.161 2.48 3.745 1.995l12.981-3.96c1.584-0.485 2.4775-2.165 1.994-3.745a3 3 0 0 0-3.745-1.995z m-5.362-11.505c-0.387 0.26-1.276 0.775-1.7675 0.83l-13.28 0.795c5.8885-4 9.9445-6.785 9.9445-6.785l5.103 5.16z" fill="#B1C3E7" p-id="2259"></path><path d="M413.684 370.093l-27.674 0.075s-45.3265 52.127-117.515-6.7345l-36.981 4.461a54.132 54.132 0 0 0-46.33 65.615l13.3735 59.4875 88.935-24.574 3.885 16.173s44.3045-33.707 58.6035-36.304l63.703-78.199z" fill="#FFD173" p-id="2260"></path><path d="M208.2825 470.623c3.47 0 6.286 2.815 6.286 6.285s-2.8165 6.285-6.286 6.285c-3.469 0-6.286-2.815-6.286-6.285s2.8175-6.285 6.286-6.285z m40.91 8.405c-7.018-8.28-7.219-19.045-3.7175-27.28 3.101-7.295 9.142-12.497 15.8305-12.863a3.001 3.001 0 0 1 0.328 5.993c-4.6165 0.25-8.4965 4.185-10.637 9.22-3 7.055-2.4775 16.505 4.799 23.1l-6.6035 1.83z m86.01-40.362c-4.0975-4.194-10.623-5.5875-17.253-4.2025-11.7675 2.458-23.746 13.55-20.7595 30.77a3.006 3.006 0 0 0 3.4685 2.445 3.005 3.005 0 0 0 2.4435-3.47c-2.315-13.35 6.9505-21.965 16.075-23.87 4.4805-0.938 8.964-0.315 11.733 2.52a2.998 2.998 0 0 0 4.242 0.05 3.001 3.001 0 0 0 0.05-4.2425z m-14.882 24.282c-2.2535-0.96-3.835-3.19-3.835-5.79 0-3.47 2.8165-6.285 6.286-6.285 3.469 0 6.2855 2.815 6.2855 6.285 0 0.075-0.001 0.15-0.004 0.225a244.505 244.505 0 0 0-8.7325 5.565z m-136.2445-40.917c11.879-5.8365 23.7405-1.496 30.7015 5.9015 5.4325 5.773 7.768 13.3955 5.413 19.6655-0.582 1.55-2.313 2.34-3.863 1.755a2.9975 2.9975 0 0 1-1.754-3.86c1.625-4.33-0.4165-9.465-4.165-13.4485-5.813-6.1775-16.035-9.584-25.9345-3.366a170.337 170.337 0 0 1-0.398-6.6475z m174.293-34.447c5.5275 12.024 0.885 23.769-6.6875 30.5375-5.91 5.2825-13.59 7.422-19.799 4.9075a3.0015 3.0015 0 0 1-1.6545-3.907 3.0015 3.0015 0 0 1 3.907-1.654c4.285 1.735 9.47-0.1745 13.548-3.82 5.989-5.353 9.5955-14.7235 4.8975-24.24 2.0075-0.5465 3.945-1.165 5.7885-1.824z m-109.64 20.565c3.47 0 6.286 2.8165 6.286 6.286 0 3.47-2.8165 6.286-6.286 6.286-3.469 0-6.285-2.8165-6.285-6.286 0-3.4695 2.816-6.286 6.285-6.286z m36.36-31.96c1.7875 1.09 3.644 2.098 5.335 2.9625-1.9575 1.9835-3.3985 4.7825-4.2015 7.8635-2.213 8.4925 0.596 19.405 12.0665 24.259a3.002 3.002 0 0 1 1.594 3.932 3.0015 3.0015 0 0 1-3.9325 1.5935c-14.7925-6.26-18.388-20.345-15.5335-31.2975 0.9275-3.5585 2.546-6.7645 4.6715-9.3135z m35.4075 21.2315c3.47 0 6.286 2.8165 6.286 6.2855 0 3.47-2.8165 6.286-6.286 6.286-3.4695 0-6.286-2.8165-6.286-6.286 0-3.469 2.8165-6.285 6.286-6.285z m60.5815 11.058c-5.376-4.635-8.344-11.0395-7.2765-17.05a3.0015 3.0015 0 0 1 3.4785-2.4295 3.002 3.002 0 0 1 2.429 3.478c-0.718 4.043 1.525 8.185 5.128 11.325l-3.759 4.6765z m-126.2-27.5285c-4.4185-5.035-12.2415-6.573-19.895-4.5075-10.9265 2.95-21.378 13.0535-19.4835 29.004a3.001 3.001 0 0 0 3.333 2.625 3.001 3.001 0 0 0 2.625-3.3325c-1.469-12.3685 6.6165-20.217 15.089-22.5035 5.2815-1.425 10.772-0.803 13.821 2.6715a3.0015 3.0015 0 0 0 4.2335 0.2765 3.0015 3.0015 0 0 0 0.2765-4.2335z m148.561-6.876a6.2745 6.2745 0 0 1 2.0685 4.011l-5.5715 6.9315a6.325 6.325 0 0 1-0.678 0.036c-3.469 0-6.285-2.8165-6.285-6.286 0-1.0775 0.271-2.0925 0.75-2.9795l9.716-1.713z" fill="#FFFFFF" p-id="2261"></path><path d="M383.8215 372.4425l2.154-2.2625-46.7825-0.25a1.1505 1.1505 0 0 0 0 2.3l44.6285 0.2125z" p-id="2262"></path><path d="M337.715 374.989l4.213-12.078a1.1505 1.1505 0 0 0-2.172-0.7575l-4.2125 12.078a1.15 1.15 0 0 0 2.1715 0.7575z" p-id="2263"></path><path d="M319.94 350.526s4.747 4.748 11.006 9.156a21.318 21.318 0 0 0 31.34-7.8335c5.63-11.1865 12.8645-25.5645 12.8645-25.5645a1.151 1.151 0 0 0-0.5105-1.5445 1.1505 1.1505 0 0 0-1.544 0.5105l-12.865 25.565a19.0175 19.0175 0 0 1-27.96 6.987c-6.087-4.287-10.705-8.902-10.705-8.902a1.15 1.15 0 0 0-1.6255 1.626zM322.008 317.2775s-0.6155-4.988-2.922-9.182c-1.476-2.684-3.642-5.0175-6.667-5.759-2.0135-0.4935-4.432-0.297-7.317 1.0575-6.7405 3.165-9.803 12.588 2.8985 24.7a1.15 1.15 0 0 0 1.587-1.6645c-10.85-10.347-9.266-18.25-3.508-20.9535 2.288-1.0745 4.195-1.2965 5.7925-0.905 2.391 0.5855 4.032 2.511 5.1985 4.6325 2.0985 3.8155 2.6545 8.355 2.6545 8.355a1.1505 1.1505 0 0 0 2.283-0.281z" p-id="2264"></path><path d="M304.55 323.386l-18.205 38.7075a1.1505 1.1505 0 0 0 2.082 0.9785l18.204-38.707a1.15 1.15 0 0 0-2.081-0.979z" p-id="2265"></path><path d="M271.106 365.4575l16.891-2.39a1.15 1.15 0 0 0-0.275-2.2835l-19.296 2.594 2.68 2.08zM341.772 341.394c0.3015-0.2635 0.74-0.2625 1.1895-0.1475 0.652 0.1665 1.325 0.601 1.882 1.238 0.556 0.6365 0.897 1.3615 0.975 2.03 0.0535 0.461-0.004 0.895-0.3055 1.159a1.1505 1.1505 0 0 0 1.5135 1.732c0.6885-0.6015 1.0705-1.471 1.105-2.4725 0.044-1.242-0.471-2.7205-1.5565-3.962-1.0855-1.2425-2.4815-1.95-3.7185-2.0735-0.997-0.099-1.91 0.163-2.598 0.765a1.1505 1.1505 0 0 0 1.5135 1.7315z" p-id="2266"></path><path d="M345.513 345.6735c-0.302 0.2635-0.74 0.2625-1.1895 0.148-0.652-0.167-1.325-0.602-1.8815-1.238-0.5565-0.637-0.8975-1.362-0.975-2.0305-0.054-0.461 0.0035-0.895 0.305-1.159a1.1505 1.1505 0 0 0-1.5135-1.7315c-0.6885 0.602-1.07 1.4705-1.105 2.4725-0.044 1.242 0.4715 2.72 1.557 3.962 1.085 1.2415 2.4815 1.95 3.718 2.073 0.9975 0.0995 1.91-0.1625 2.598-0.7645a1.1505 1.1505 0 0 0-1.514-1.732zM320.696 314.204s16.253 8.742 29.9365-5.5135c0 0 7.11 16.54 24.465 17.649 0 0 4.3835-5.908 1.358-12.135-2.3725-4.883-7.545-11.7475-14.058-17.628-11.6135-10.4475-29.1605-10.706-41.0765-0.605-2.776 2.355-5.3515 5.21-7.397 8.6565 0 0 4.173-1.6545 6.772 9.576z" p-id="2267"></path><path d="M349.847 448.516l112.74-136.0185c16.826-20.3 44.211-28.486 69.417-20.751v0.0005c23.445 7.195 39.405 28.9065 39.275 53.4315-0.2 37.0405-0.455 84.915-0.455 84.915a1.505 1.505 0 0 0 1.495 1.508 1.497 1.497 0 0 0 1.505-1.492s0.255-47.8745 0.455-84.915c0.135-25.8485-16.685-48.732-41.395-56.315v-0.001c-26.365-8.09-55.0075 0.4715-72.6065 21.705L347.537 446.601a1.5 1.5 0 0 0 2.31 1.9145zM570.279 517.6315v14.96l-0.605 113.66a1.501 1.501 0 0 0 1.49 1.51c0.83 0.005 1.505-0.665 1.51-1.49l0.605-113.67v-14.97c0-0.83-0.67-1.5-1.5-1.5-0.825 0-1.5 0.67-1.5 1.5z" p-id="2268"></path><path d="M581.504 664.5715c-1.14-12.605-10.93-16.935-10.93-16.935a1.5 1.5 0 1 1 1.2-2.75s12.255 5.255 12.82 21.015a1.505 1.505 0 0 1-1.39 1.55l-69.3085 5.18a1.5125 1.5125 0 0 1-1.2035-0.47s-20.12-21.415-44.7925-22.155a1.5005 1.5005 0 0 1-1.455-1.495l-0.4215-115.915a1.5035 1.5035 0 0 1 1.4945-1.505 1.505 1.505 0 0 1 1.505 1.495l0.417 114.49c22.815 1.395 41.64 19.225 44.927 22.51l67.1375-5.015z" p-id="2269"></path><path d="M469.023 532.5865l-0.0555-15.26a1.4985 1.4985 0 0 0-1.5055-1.495 1.4975 1.4975 0 0 0-1.495 1.505l0.056 15.26c0.003 0.83 0.678 1.5 1.505 1.495a1.497 1.497 0 0 0 1.495-1.505zM468.2725 399.95l0.2125-15.375a1.5005 1.5005 0 0 0-3-0.0415l-0.2125 15.3755a1.501 1.501 0 0 0 1.479 1.5205 1.501 1.501 0 0 0 1.521-1.4795zM446.3315 510.1865l-43.8675 75.99 2.4535 2.335 44.013-76.825a1.503 1.503 0 0 0-0.55-2.05 1.506 1.506 0 0 0-2.049 0.55z" p-id="2270"></path><path d="M449.633 536.7365l16.4515-0.74a1.5 1.5 0 1 0 0-3l-16.4515 0.74v3zM771.484 824.9515c-5.625-6.1-14.595-8.58-14.595-8.58a1.49 1.49 0 0 1-1.01-0.95s-46.325-132.455-75.305-215.3c-13.43-38.405-49.675-64.125-90.36-64.125h-17.36c-0.83 0-1.5-0.675-1.5-1.5 0-0.83 0.67-1.5 1.5-1.5h17.36c41.96 0 79.34 26.525 93.19 66.135l75.055 214.59c2.785 0.92 12.47 4.555 17.365 11.9 0.305 0.46 0.335 1.055 0.075 1.54a1.49 1.49 0 0 1-1.325 0.79l-111.505-4.785c-0.625 0-1.185-0.385-1.405-0.97l-72.83-191.875c-0.29-0.775 0.1-1.64 0.875-1.935 0.775-0.29 1.64 0.1 1.93 0.875l72.465 190.905 107.38 4.785z" p-id="2271"></path><path d="M628.204 568.1615l17.545 11.545a1.5 1.5 0 1 0 1.65-2.505l-17.55-11.545a1.4985 1.4985 0 1 0-1.645 2.505zM595.254 644.1265s-9.11 0.005-22.7 0.015c-0.825 0-1.5 0.675-1.5 1.5 0.005 0.83 0.675 1.5 1.505 1.5 13.585-0.01 22.695-0.015 22.695-0.015 0.83 0 1.5-0.67 1.5-1.5s-0.67-1.5-1.5-1.5zM454.604 644.1315c0.265 0 3.388 0.02 7.676 0.025 1.7325 0.005 2.2485 0 4.453 0a1.4995 1.4995 0 1 1-0.002 3c-2.2055 0-2.722 0.005-4.455 0-4.529-0.005-8.495 0.005-8.495 0.005l-0.094-2.94s0.4585-0.06 0.592-0.08c0.11-0.015 0.219-0.02 0.325-0.01z" p-id="2272"></path><path d="M436.36 501.5715l34.6515 13.41c2.2565 0.875 4.7635 0.185 6.27-1.59 0.502 0.335 1.1335 0.6 1.9235 0.75l3.065-0.355-2.589 5.125c-1.3055 2.58-4.4115 3.685-7.0525 2.5l-40.131-18.015 3.863-1.825z m76.62-57.279l12.164-23.6535s-0.075 5.182-0.105 7.4835a4.68 4.68 0 0 1-0.5 2.0435l-7.7085 15.246c-0.889-0.655-2.1315-1.147-3.8505-1.1195z" fill="#557ACB" p-id="2273"></path><path d="M444.311 435.57a73576.28 73576.28 0 0 1 20.845-35.6295 6.278 6.278 0 0 1 6.428-3.028c17.7695 3.38 40.933 13.594 50.203 17.895 0.98 0.454 1.827 1.1675 2.502 1.876a3.9045 3.9045 0 0 1 0.645 4.4665l-11.872 23.1415c-2.0875 0.0135-4.89 0.799-8.6355 3.015l-28.4855 59.27s-1.7255 4.855 1.411 6.86a6.2105 6.2105 0 0 1-6.8725 1.6l-34.3235-13.525 4.664-2.05 13.2795-61.6465-9.7885-2.245z" fill="#B0C2E7" p-id="2274"></path><path d="M519.525 424.3195a3.894 3.894 0 0 0-2.103-5.448l-0.421-0.1565c-10.1365-3.785-29.9-11.934-44.034-15.8035a6.2855 6.2855 0 0 0-6.966 2.979c-8.4785 14.7995-37.3175 65.1815-46.03 80.4015a4.391 4.391 0 0 0 2.1875 6.2575c10.4035 4.1255 35.303 14.0085 46.1695 18.3185 2.9625 1.1785 6.3365-0.081 7.805-2.912 8.5335-16.4475 35.69-68.7885 43.3925-83.6365z" fill="#FFFFFF" p-id="2275"></path><path d="M506.631 411.1065a1.205 1.205 0 0 0-0.725-1.5415l-18.7985-6.774a1.205 1.205 0 0 0-0.817 2.2665l18.799 6.7735a1.205 1.205 0 0 0 1.5415-0.725z" fill="#557ACB" p-id="2276"></path><path d="M491.111 464.9815l-1.0455 2.176-27.86-10.9385 22.638-5.661c6.4565-4.12 0.352-10.4845 0.352-10.4845-4.0705 1.0635-24.6635-1.155-31.4865-1.9335l14.2525-25.96 40.859 15.9555-10.1635 21.146c-4.393 1.087-15.013 4.555-12.7355 12.308l5.1895 3.392z" p-id="2277"></path><path d="M474.4245 470.7025c1.6345-1.304 3.3695-0.5195 3.8535 0.721s-0.283 2.937-1.918 4.24c-1.182 0.998-3.319 1.5635-5.004 1.8235-0.9175-1.437-1.9035-3.415-1.935-4.9615-0.1005-2.0885 0.6665-3.785 1.9175-4.2405 1.251-0.4555 2.9855 0.329 3.086 2.4175z" fill="#F2370C" p-id="2278"></path><path d="M511.984 421.2085l-40.487-15.463-2.617 4.7125 40.863 15.511 2.241-4.76z" p-id="2279"></path><path d="M478.684 488.553l-11.1955 22.6035-29.7515-11.815 7.933-3.4575c11.311-7.797 3.98-10.841 3.98-10.841 4.455-1.163 6.5415-3.8265 7.481-5.665l21.553 9.175z" fill-opacity=".98" p-id="2280"></path><path d="M529.95 390.339l-10.69 10.5725 4.605 4.704 11.35-7.775-5.265-7.5015z m-22.01 4.938l4.85 3.3415 10.795-14.5945-9.27-4.29-6.375 15.543z m-16.295-4.409l6.815 1.304 4.165-14.606-9.37-1.772-1.61 15.074z" fill="#F2370C" p-id="2281"></path><path d="M278.28 417.9865l11.0715 66.7655c0.1365 0.8165 0.69-0.4595 1.507-0.596a1.501 1.501 0 0 0 1.232-1.727l-10.8515-64.937a1.5 1.5 0 0 0-2.959 0.495z" p-id="2282"></path><path d="M441.9215 434.05c1.1815 0.208 29.315 5.1455 42.52 4.5325 1.549-0.072 3.428 1.02 4.4445 2.943 1.049 1.9865 1.245 4.8365-1.017 7.711-1.913 2.4315-5.79 4.9785-12.9355 6.781-8.636 2.178-18.1315 5.295-42.0775 1.729a1.5005 1.5005 0 0 1-1.263-1.7045 1.5005 1.5005 0 0 1 1.7045-1.2625c23.277 3.4655 32.5075 0.446 40.902-1.671 5.366-1.3535 8.6785-3.0835 10.565-4.905 1.545-1.493 2.024-2.986 1.818-4.2385-0.1465-0.887-0.621-1.624-1.199-2.0565-0.262-0.196-0.536-0.3415-0.8025-0.3295-13.699 0.636-43.2215-4.5825-43.2215-4.5825l-0.085-0.0175c-35.623-8.4565-70.278 1.2215-99.047 15.831-43.34 22.009-73.368 55.2515-73.368 55.2515a1.5 1.5 0 0 1-2.1185 0.105 1.497 1.497 0 0 1-0.108-2.115s30.38-33.645 74.236-55.9165c29.3495-14.904 64.714-24.6975 101.0525-16.085z" p-id="2283"></path><path d="M456.358 459.699s0.94 0.8605 1.5185 2.132c0.3375 0.7425 0.562 1.6435 0.2745 2.5935-0.351 1.16-1.405 2.3085-3.4955 3.4275-3.5805 1.9155-9.881 3.5405-20.549 4.398a1.5 1.5 0 0 0 0.24 2.9905c11.2885-0.9075 17.936-2.7165 21.7245-4.7435 2.91-1.5575 4.289-3.311 4.8625-4.933 0.626-1.769 0.335-3.4635-0.275-4.858-0.84-1.9245-2.2835-3.2285-2.2835-3.2285a1.501 1.501 0 0 0-2.017 2.2215z" p-id="2284"></path><path d="M454.381 470.87s2.8815 2.894 2.26 6.1575c-0.3135 1.6475-1.5805 3.304-4.418 4.8015-3.29 1.736-8.5065 3.1655-16.551 3.975a1.5 1.5 0 0 0 0.3 2.985c6.833-0.688 11.737-1.83 15.2145-3.1985 6.2065-2.4415 8.1735-5.7225 8.49-8.59 0.484-4.3895-3.1365-8.2135-3.1365-8.2135a1.5 1.5 0 0 0-2.159 2.083z" p-id="2285"></path><path d="M433.5375 500.5665c10.719-5.36 15.2835-8.912 16.8265-11.3535 0.3975-0.6285 0.561-1.089 0.442-1.466-0.091-0.2895-0.337-0.4725-0.563-0.6195-0.5085-0.331-1.0505-0.4545-1.0505-0.4545a1.5005 1.5005 0 0 1-1.142-1.7875 1.5005 1.5005 0 0 1 1.7875-1.142s1.0545 0.228 2.04 0.869c0.772 0.502 1.477 1.2425 1.7895 2.2325 0.314 0.9955 0.2815 2.311-0.7675 3.9705-1.666 2.636-6.4675 6.66-18.0515 12.451l-0.069 0.03s-58.603 25.655-115.8535 72.24l-0.0605 0.045s-34.1685 24.925-66.19 12.845c-13.725-5.18-27.118-17.12-37.203-40.81-0.0115-0.03-0.0225-0.055-0.0325-0.085l-16.875-54.531 2.884-0.826s16.2985 52.902 16.801 54.307c9.6535 22.655 22.3525 34.18 35.485 39.135 30.157 11.38 62.273-11.665 63.331-12.435 56.7215-46.145 114.7545-71.86 116.4715-72.615z" p-id="2286"></path><path d="M572.799 393.5675s19.905 7.9335 37.045 23.205c16.93 15.0835 31.215 37.391 20.28 66.3905-3.855 10.2205-20.82 48.7635-137.801 26.8435a1.4995 1.4995 0 0 0-1.7505 1.195 1.506 1.506 0 0 0 1.198 1.755c120.0385 22.49 137.2035-18.248 141.1585-28.735 11.47-30.4165-3.33-53.8685-21.09-69.6895-17.55-15.6345-37.93-23.7515-37.93-23.7515a1.501 1.501 0 0 0-1.95 0.838 1.5025 1.5025 0 0 0 0.84 1.949z" p-id="2287"></path><path d="M524.994 430.216l61.715 2.53a1.497 1.497 0 0 0 1.56-1.4375 1.4995 1.4995 0 0 0-1.435-1.56l-61.715-2.53a1.4995 1.4995 0 0 0-1.56 1.437 1.5 1.5 0 0 0 1.435 1.5605zM510.9215 446.7285c2.6015-0.9985 5.5255 0.323 6.515 2.9a5.033 5.033 0 0 1-2.901 6.514l-20.507 7.873a1.495 1.495 0 0 0-0.8575 1.9455 1.495 1.495 0 0 0 1.9395 0.872l20.5065-7.873c4.147-1.5925 6.2205-6.2515 4.6245-10.409-1.596-4.157-6.255-6.2315-10.402-4.64-0.7725 0.297-1.148 1.19-0.8575 1.946a1.495 1.495 0 0 0 1.9395 0.8715z" p-id="2288"></path><path d="M494.0285 464.0155c-2.5935 0.996-5.5125-0.288-6.515-2.8995-0.989-2.5765 0.307-5.5185 2.901-6.514l20.507-7.8735a1.495 1.495 0 0 0 0.8575-1.945c-0.29-0.756-1.167-1.1685-1.9395-0.872l-20.5065 7.873c-4.147 1.592-6.2125 6.2485-4.6165 10.4055s6.247 6.235 10.394 4.643a1.495 1.495 0 0 0 0.8575-1.946 1.495 1.495 0 0 0-1.9395-0.8715zM507.4215 463.0235c2.6015-0.9985 5.5255 0.323 6.515 2.9a5.033 5.033 0 0 1-2.901 6.514l-20.507 7.873a1.495 1.495 0 0 0-0.8575 1.9455 1.495 1.495 0 0 0 1.9395 0.872l20.5065-7.873c4.147-1.5925 6.2205-6.2515 4.6245-10.409-1.596-4.157-6.255-6.2315-10.402-4.64-0.7725 0.297-1.148 1.19-0.8575 1.946a1.495 1.495 0 0 0 1.9395 0.8715z" p-id="2289"></path><path d="M490.5285 480.3105c-2.5935 0.996-5.5125-0.288-6.515-2.8995-0.989-2.5765 0.307-5.5185 2.901-6.514l20.507-7.8735a1.495 1.495 0 0 0 0.8575-1.945c-0.29-0.756-1.167-1.1685-1.9395-0.872l-20.5065 7.873c-4.147 1.592-6.2125 6.2485-4.6165 10.4055s6.247 6.235 10.394 4.643a1.495 1.495 0 0 0 0.8575-1.946 1.495 1.495 0 0 0-1.9395-0.8715zM510.4865 482.213a5.033 5.033 0 0 1-2.901 6.5145l-20.507 7.873a1.495 1.495 0 0 0-0.8575 1.9455 1.495 1.495 0 0 0 1.9395 0.872l20.5065-7.873c4.147-1.5925 6.2205-6.2515 4.6245-10.409-0.29-0.7555-1.175-1.165-1.9475-0.8685s-1.148 1.19-0.8575 1.9455z" p-id="2290"></path><path d="M487.0785 496.6005c-2.5935 0.996-5.5125-0.288-6.515-2.8995-0.989-2.5765 0.307-5.5185 2.901-6.514l20.507-7.8735c2.6015-0.9985 5.5255 0.323 6.515 2.9a1.495 1.495 0 0 0 1.939 0.8715 1.5025 1.5025 0 0 0 0.866-1.949c-1.596-4.157-6.255-6.2315-10.402-4.64l-20.5065 7.8735c-4.147 1.592-6.2125 6.2485-4.6165 10.4055s6.247 6.235 10.394 4.643a1.495 1.495 0 0 0 0.8575-1.946 1.495 1.495 0 0 0-1.9395-0.8715zM506.9865 498.508a5.033 5.033 0 0 1-2.901 6.5145l-20.507 7.873a1.495 1.495 0 0 0-0.8575 1.9455 1.495 1.495 0 0 0 1.9395 0.872l20.5065-7.873c4.147-1.5925 6.2205-6.2515 4.6245-10.409-0.29-0.7555-1.175-1.165-1.9475-0.8685s-1.148 1.19-0.8575 1.9455z" p-id="2291"></path><path d="M483.5785 512.8955c-2.5935 0.996-5.5125-0.288-6.515-2.8995-0.989-2.5765 0.307-5.5185 2.901-6.514l20.507-7.8735c2.6015-0.9985 5.5255 0.323 6.515 2.9a1.495 1.495 0 0 0 1.939 0.8715 1.5025 1.5025 0 0 0 0.866-1.949c-1.596-4.157-6.255-6.2315-10.402-4.64l-20.5065 7.8735c-4.147 1.592-6.2125 6.2485-4.6165 10.4055s6.247 6.235 10.394 4.643a1.495 1.495 0 0 0 0.8575-1.946 1.495 1.495 0 0 0-1.9395-0.8715z" p-id="2292"></path><path d="M501.52 315.2135l18.08 11.7255a1.5 1.5 0 0 0 1.632-2.517l-18.079-11.725a1.5005 1.5005 0 0 0-1.6325 2.517z" p-id="2293"></path><path d="M282.9675 259.156c-0.902 0.389-0.9095 0.4475-1.836 0.799-7.7105 2.925-16.2485 4.551-25.2295 4.551-34.102 0-61.898-23.4365-61.898-52.463 0-29.0265 27.796-52.463 61.898-52.463 34.1015 0 61.8975 23.4365 61.8975 52.463 0 14.485-6.948 27.594-18.132 37.0775-0.814 0.6905-0.779 0.698-1.6375 1.3485a1.5 1.5 0 0 0 1.812 2.391c0.925-0.701 0.8885-0.7075 1.766-1.4515 11.867-10.063 19.192-23.995 19.192-39.3655 0-30.54-29.0195-55.463-64.898-55.463-35.879 0-64.898 24.9235-64.898 55.463 0 30.539 29.019 55.4625 64.898 55.4625 9.36 0 18.258-1.6965 26.2935-4.7455 0.989-0.375 0.998-0.434 1.96-0.8495a1.5005 1.5005 0 0 0 0.783-1.9715 1.5005 1.5005 0 0 0-1.971-0.783z" p-id="2294"></path><path d="M303.255 277.399L297.414 252.15a1.5005 1.5005 0 0 1 2.923-0.6765l6.99 30.215a1.5 1.5 0 0 1-2.507 1.414l-22.1635-21.537a1.5 1.5 0 0 1 2.0905-2.1515l18.508 17.9845z" p-id="2295"></path><path d="M228.0825 236.9055l0.145-44.7195a6.8635 6.8635 0 0 1 7.105-6.8395c0.419 0.03 0.859 0.057 1.322" fill="#EF7B58" p-id="2296"></path></svg>